<svg xmlns="http://www.w3.org/2000/svg" xmlns:xlink="http://www.w3.org/1999/xlink" width="225" zoomAndPan="magnify" viewBox="0 0 168.75 149.999998" height="200" preserveAspectRatio="xMidYMid meet" version="1.0"><path fill="rgb(100%, 100%, 100%)" d="M 65.300781 17.554688 C 57.890625 20.421875 26.277344 32.648438 18.511719 62.132812 C 9.652344 95.75 36.144531 135.328125 72.761719 142.621094 C 110.746094 150.1875 153.652344 132.40625 150.285156 104.851562 C 148.746094 92.285156 131.648438 88.480469 132.4375 73.675781 C 133.210938 59.226562 151.386719 52.144531 149.484375 34.953125 C 149.363281 33.875 148.980469 30.636719 147.359375 27.402344 C 138.148438 9.035156 96.429688 5.515625 65.300781 17.554688 " fill-opacity="1" fill-rule="nonzero"/><path fill="rgb(100%, 46.269226%, 0%)" d="M 51.03125 43.773438 C 53.007812 43.734375 54.644531 45.304688 54.683594 47.28125 C 54.726562 49.261719 53.15625 50.894531 51.179688 50.9375 C 49.203125 50.976562 47.566406 49.40625 47.523438 47.429688 C 47.484375 45.453125 49.054688 43.816406 51.03125 43.773438 Z M 43.894531 46.808594 L 43.925781 48.199219 L 45.414062 48.503906 C 45.476562 48.824219 45.566406 49.132812 45.683594 49.433594 L 44.589844 50.484375 L 45.308594 51.675781 L 46.75 51.195312 C 46.964844 51.4375 47.199219 51.660156 47.449219 51.863281 L 47.027344 53.324219 L 48.246094 53.996094 L 49.25 52.859375 C 49.554688 52.960938 49.871094 53.039062 50.191406 53.089844 L 50.558594 54.566406 L 51.949219 54.535156 L 52.253906 53.046875 C 52.574219 52.984375 52.882812 52.894531 53.183594 52.78125 L 54.234375 53.875 L 55.425781 53.152344 L 54.941406 51.710938 C 55.1875 51.5 55.410156 51.265625 55.613281 51.015625 L 57.074219 51.4375 L 57.742188 50.214844 L 56.609375 49.210938 C 56.710938 48.90625 56.785156 48.59375 56.835938 48.269531 L 58.3125 47.902344 L 58.28125 46.511719 L 56.792969 46.210938 C 56.730469 45.886719 56.640625 45.578125 56.527344 45.277344 L 57.621094 44.226562 L 56.898438 43.035156 L 55.457031 43.515625 C 55.246094 43.273438 55.011719 43.050781 54.761719 42.847656 L 55.179688 41.386719 L 53.960938 40.714844 L 52.957031 41.851562 C 52.652344 41.75 52.339844 41.671875 52.015625 41.621094 L 51.652344 40.144531 L 50.261719 40.175781 L 49.957031 41.664062 C 49.636719 41.726562 49.324219 41.816406 49.023438 41.929688 L 47.972656 40.835938 L 46.785156 41.558594 L 47.265625 43 C 47.023438 43.214844 46.796875 43.445312 46.59375 43.699219 L 45.136719 43.277344 L 44.464844 44.496094 L 45.601562 45.5 C 45.5 45.804688 45.421875 46.121094 45.371094 46.441406 L 43.894531 46.808594 " fill-opacity="1" fill-rule="nonzero"/><path fill="rgb(100%, 0%, 32.159424%)" d="M 115.644531 32.550781 C 117.289062 32.519531 118.648438 33.824219 118.679688 35.464844 C 118.714844 37.109375 117.410156 38.46875 115.769531 38.5 C 114.125 38.535156 112.765625 37.230469 112.734375 35.585938 C 112.699219 33.945312 114.003906 32.585938 115.644531 32.550781 Z M 109.71875 35.070312 L 109.742188 36.226562 L 110.980469 36.480469 C 111.03125 36.746094 111.105469 37.003906 111.203125 37.253906 L 110.292969 38.128906 L 110.890625 39.117188 L 112.089844 38.714844 C 112.265625 38.917969 112.460938 39.105469 112.667969 39.273438 L 112.320312 40.488281 L 113.332031 41.042969 L 114.167969 40.101562 C 114.417969 40.183594 114.683594 40.25 114.949219 40.292969 L 115.253906 41.515625 L 116.40625 41.492188 L 116.660156 40.257812 C 116.925781 40.203125 117.183594 40.128906 117.433594 40.03125 L 118.308594 40.941406 L 119.296875 40.34375 L 118.894531 39.144531 C 119.097656 38.96875 119.285156 38.773438 119.453125 38.566406 L 120.667969 38.914062 L 121.222656 37.902344 L 120.28125 37.066406 C 120.363281 36.816406 120.429688 36.554688 120.46875 36.285156 L 121.695312 35.980469 L 121.671875 34.824219 L 120.433594 34.574219 C 120.382812 34.308594 120.308594 34.046875 120.210938 33.800781 L 121.121094 32.925781 L 120.523438 31.9375 L 119.324219 32.335938 C 119.148438 32.136719 118.953125 31.949219 118.746094 31.78125 L 119.09375 30.566406 L 118.082031 30.007812 L 117.246094 30.953125 C 116.992188 30.867188 116.730469 30.804688 116.464844 30.761719 L 116.160156 29.535156 L 115.003906 29.558594 L 114.753906 30.796875 C 114.484375 30.851562 114.226562 30.925781 113.980469 31.019531 L 113.105469 30.109375 L 112.117188 30.707031 L 112.515625 31.90625 C 112.316406 32.085938 112.128906 32.277344 111.960938 32.488281 L 110.746094 32.136719 L 110.191406 33.148438 L 111.132812 33.984375 C 111.050781 34.238281 110.984375 34.5 110.941406 34.769531 L 109.71875 35.070312 " fill-opacity="1" fill-rule="nonzero"/><path fill="rgb(32.939148%, 47.44873%, 96.859741%)" d="M 130.476562 27.480469 C 132.921875 26.625 135.59375 27.914062 136.449219 30.363281 C 137.304688 32.808594 136.015625 35.484375 133.574219 36.339844 C 131.128906 37.195312 128.457031 35.90625 127.601562 33.460938 C 126.746094 31.011719 128.035156 28.335938 130.476562 27.480469 Z M 122.835938 34.164062 L 123.4375 35.882812 L 125.414062 35.65625 C 125.625 36.027344 125.863281 36.378906 126.125 36.707031 L 125.191406 38.460938 L 126.574219 39.652344 L 128.167969 38.464844 C 128.535156 38.679688 128.914062 38.863281 129.308594 39.015625 L 129.378906 41.003906 L 131.167969 41.34375 L 131.957031 39.519531 C 132.378906 39.523438 132.800781 39.492188 133.222656 39.421875 L 134.277344 41.113281 L 135.996094 40.511719 L 135.765625 38.53125 C 136.140625 38.324219 136.492188 38.082031 136.816406 37.820312 L 138.570312 38.753906 L 139.757812 37.371094 L 138.570312 35.773438 C 138.785156 35.40625 138.972656 35.023438 139.121094 34.628906 L 141.109375 34.5625 L 141.449219 32.769531 L 139.625 31.976562 C 139.628906 31.558594 139.597656 31.136719 139.527344 30.714844 L 141.214844 29.65625 L 140.613281 27.9375 L 138.636719 28.164062 C 138.429688 27.792969 138.191406 27.441406 137.925781 27.113281 L 138.859375 25.359375 L 137.480469 24.171875 L 135.882812 25.355469 C 135.515625 25.140625 135.136719 24.957031 134.742188 24.804688 L 134.671875 22.816406 L 132.882812 22.476562 L 132.09375 24.300781 C 131.675781 24.296875 131.25 24.332031 130.828125 24.398438 L 129.773438 22.710938 L 128.058594 23.308594 L 128.285156 25.289062 C 127.914062 25.5 127.558594 25.738281 127.234375 26.003906 L 125.480469 25.066406 L 124.292969 26.449219 L 125.480469 28.046875 C 125.265625 28.414062 125.082031 28.796875 124.929688 29.191406 L 122.941406 29.261719 L 122.605469 31.050781 L 124.425781 31.84375 C 124.421875 32.261719 124.453125 32.683594 124.523438 33.109375 L 122.835938 34.164062 " fill-opacity="1" fill-rule="nonzero"/><path fill="rgb(100%, 0%, 32.159424%)" d="M 44.53125 95.4375 C 44.46875 95.4375 44.40625 95.414062 44.359375 95.367188 C 44.265625 95.273438 44.265625 95.121094 44.359375 95.023438 L 58.300781 81.066406 C 58.394531 80.96875 58.550781 80.96875 58.644531 81.066406 C 58.738281 81.160156 58.738281 81.3125 58.644531 81.40625 L 44.699219 95.367188 C 44.652344 95.414062 44.589844 95.4375 44.53125 95.4375 " fill-opacity="1" fill-rule="nonzero"/><path fill="rgb(100%, 0%, 32.159424%)" d="M 47.832031 86.242188 C 47.769531 86.242188 47.707031 86.21875 47.660156 86.171875 C 47.566406 86.074219 47.566406 85.921875 47.660156 85.828125 L 58.808594 74.664062 C 58.902344 74.570312 59.058594 74.570312 59.152344 74.664062 C 59.246094 74.757812 59.246094 74.914062 59.152344 75.007812 L 48 86.171875 C 47.953125 86.21875 47.890625 86.242188 47.832031 86.242188 " fill-opacity="1" fill-rule="nonzero"/><path fill="rgb(0%, 0%, 0%)" d="M 32.324219 51.546875 C 32.28125 51.546875 32.238281 51.535156 32.199219 51.511719 C 32.085938 51.441406 32.046875 51.292969 32.117188 51.179688 C 37.4375 42.402344 45.167969 35.433594 54.476562 31.03125 C 58.351562 29.195312 62.429688 27.84375 66.589844 27.007812 C 66.722656 26.980469 66.847656 27.066406 66.875 27.195312 C 66.902344 27.328125 66.816406 27.457031 66.6875 27.480469 C 62.5625 28.308594 58.523438 29.652344 54.683594 31.46875 C 45.460938 35.832031 37.800781 42.734375 32.53125 51.429688 C 32.484375 51.503906 32.40625 51.546875 32.324219 51.546875 " fill-opacity="1" fill-rule="nonzero"/><path fill="rgb(0%, 0%, 0%)" d="M 25.742188 52.996094 C 25.703125 52.996094 25.664062 52.984375 25.625 52.964844 C 25.511719 52.902344 25.46875 52.753906 25.53125 52.636719 C 28.695312 46.875 32.78125 41.710938 37.671875 37.289062 C 42.738281 32.707031 48.539062 29.039062 54.921875 26.382812 C 55.046875 26.332031 55.1875 26.390625 55.238281 26.511719 C 55.289062 26.636719 55.230469 26.777344 55.109375 26.828125 C 42.691406 31.996094 32.339844 41.242188 25.957031 52.867188 C 25.910156 52.949219 25.828125 52.996094 25.742188 52.996094 " fill-opacity="1" fill-rule="nonzero"/><path fill="rgb(0%, 0%, 0%)" d="M 60.5625 23.429688 L 61.054688 24.996094 L 62.019531 23.511719 Z M 60.980469 25.796875 C 60.96875 25.796875 60.957031 25.796875 60.945312 25.796875 C 60.855469 25.785156 60.777344 25.71875 60.75 25.628906 L 59.996094 23.242188 C 59.972656 23.167969 59.988281 23.082031 60.035156 23.019531 C 60.085938 22.957031 60.160156 22.921875 60.242188 22.929688 L 62.464844 23.050781 C 62.550781 23.054688 62.628906 23.105469 62.667969 23.179688 C 62.707031 23.257812 62.703125 23.351562 62.65625 23.421875 L 61.183594 25.6875 C 61.136719 25.757812 61.058594 25.796875 60.980469 25.796875 " fill-opacity="1" fill-rule="nonzero"/><path fill="rgb(100%, 46.269226%, 0%)" d="M 107.03125 14.269531 C 106.960938 13.5 107.53125 12.824219 108.300781 12.757812 C 109.066406 12.691406 109.742188 13.257812 109.808594 14.027344 C 109.878906 14.796875 109.308594 15.472656 108.539062 15.539062 C 107.773438 15.609375 107.097656 15.039062 107.03125 14.269531 " fill-opacity="1" fill-rule="nonzero"/><path fill="rgb(0%, 0%, 0%)" d="M 121.167969 16.441406 C 121.164062 16.441406 121.164062 16.441406 121.160156 16.441406 L 120.304688 16.398438 C 120.171875 16.390625 120.066406 16.277344 120.074219 16.144531 C 120.082031 16.007812 120.195312 15.90625 120.328125 15.914062 L 121.183594 15.957031 C 121.316406 15.960938 121.417969 16.074219 121.410156 16.210938 C 121.40625 16.339844 121.300781 16.441406 121.167969 16.441406 " fill-opacity="1" fill-rule="nonzero"/><path fill="rgb(0%, 0%, 0%)" d="M 118.175781 16.292969 C 118.171875 16.292969 118.171875 16.292969 118.167969 16.292969 L 117.3125 16.25 C 117.179688 16.246094 117.074219 16.128906 117.082031 15.996094 C 117.085938 15.863281 117.203125 15.757812 117.335938 15.765625 L 118.191406 15.808594 C 118.324219 15.816406 118.425781 15.929688 118.417969 16.0625 C 118.414062 16.191406 118.304688 16.292969 118.175781 16.292969 " fill-opacity="1" fill-rule="nonzero"/><path fill="rgb(0%, 0%, 0%)" d="M 119.3125 15.292969 C 119.304688 15.292969 119.300781 15.292969 119.296875 15.289062 C 119.164062 15.28125 119.0625 15.167969 119.070312 15.035156 L 119.121094 14.191406 C 119.128906 14.058594 119.242188 13.957031 119.378906 13.964844 C 119.511719 13.972656 119.613281 14.085938 119.601562 14.21875 L 119.554688 15.0625 C 119.542969 15.191406 119.4375 15.292969 119.3125 15.292969 " fill-opacity="1" fill-rule="nonzero"/><path fill="rgb(0%, 0%, 0%)" d="M 119.132812 18.242188 C 119.125 18.242188 119.121094 18.242188 119.117188 18.242188 C 118.984375 18.234375 118.882812 18.117188 118.890625 17.984375 L 118.941406 17.140625 C 118.949219 17.007812 119.0625 16.90625 119.195312 16.914062 C 119.332031 16.921875 119.433594 17.039062 119.425781 17.171875 L 119.371094 18.015625 C 119.363281 18.140625 119.257812 18.242188 119.132812 18.242188 " fill-opacity="1" fill-rule="nonzero"/><path fill="rgb(0%, 0%, 0%)" d="M 41.859375 105.179688 C 42.125 107.355469 41.492188 109.542969 40.105469 111.238281 C 38.71875 112.933594 36.703125 113.988281 34.519531 114.15625 C 32.324219 114.324219 30.15625 113.582031 28.527344 112.097656 C 26.894531 110.613281 25.945312 108.523438 25.902344 106.316406 L 26.425781 64.511719 C 26.363281 61.503906 28.660156 58.96875 31.65625 58.738281 C 34.679688 58.507812 37.347656 60.695312 37.714844 63.707031 L 41.859375 105.179688 " fill-opacity="1" fill-rule="nonzero"/><path fill="rgb(0%, 0%, 0%)" d="M 32.097656 58.964844 C 31.957031 58.964844 31.816406 58.96875 31.675781 58.980469 C 28.808594 59.199219 26.609375 61.628906 26.667969 64.507812 L 26.144531 106.320312 C 26.1875 108.445312 27.113281 110.488281 28.6875 111.917969 C 30.261719 113.347656 32.382812 114.078125 34.503906 113.914062 C 36.609375 113.753906 38.582031 112.722656 39.917969 111.085938 C 41.257812 109.449219 41.875 107.308594 41.617188 105.207031 C 41.617188 105.207031 41.617188 105.207031 41.617188 105.203125 L 37.476562 63.730469 C 37.136719 60.988281 34.816406 58.964844 32.097656 58.964844 Z M 33.917969 114.421875 C 31.875 114.421875 29.882812 113.65625 28.363281 112.277344 C 26.691406 110.753906 25.707031 108.585938 25.660156 106.324219 L 26.183594 64.507812 C 26.121094 61.382812 28.515625 58.738281 31.640625 58.496094 C 34.796875 58.253906 37.570312 60.53125 37.957031 63.675781 L 42.097656 105.152344 C 42.371094 107.382812 41.714844 109.65625 40.292969 111.394531 C 38.871094 113.128906 36.777344 114.226562 34.539062 114.398438 C 34.332031 114.414062 34.125 114.421875 33.917969 114.421875 " fill-opacity="1" fill-rule="nonzero"/><path fill="rgb(0%, 0%, 0%)" d="M 49.960938 112.160156 C 48.410156 112.160156 47.042969 111.136719 46.609375 109.644531 L 45.011719 104.179688 C 44.699219 103.117188 43.726562 102.386719 42.621094 102.386719 L 22.488281 102.386719 C 21.042969 102.386719 19.871094 103.5625 19.871094 105.007812 L 19.871094 123.054688 L 54.246094 123.054688 L 54.246094 114.78125 C 54.246094 113.332031 53.074219 112.160156 51.628906 112.160156 L 49.960938 112.160156 " fill-opacity="1" fill-rule="nonzero"/><path fill="rgb(0%, 0%, 0%)" d="M 20.113281 122.8125 L 54.003906 122.8125 L 54.003906 114.78125 C 54.003906 113.46875 52.941406 112.402344 51.628906 112.402344 L 49.960938 112.402344 C 48.3125 112.402344 46.839844 111.296875 46.375 109.710938 L 44.777344 104.25 C 44.5 103.296875 43.613281 102.628906 42.621094 102.628906 L 22.488281 102.628906 C 21.179688 102.628906 20.113281 103.695312 20.113281 105.007812 Z M 54.246094 123.296875 L 19.871094 123.296875 C 19.738281 123.296875 19.632812 123.1875 19.632812 123.054688 L 19.632812 105.007812 C 19.632812 103.429688 20.914062 102.144531 22.488281 102.144531 L 42.621094 102.144531 C 43.828125 102.144531 44.90625 102.953125 45.242188 104.113281 L 46.839844 109.578125 C 47.242188 110.957031 48.527344 111.917969 49.960938 111.917969 L 51.628906 111.917969 C 53.207031 111.917969 54.488281 113.203125 54.488281 114.78125 L 54.488281 123.054688 C 54.488281 123.1875 54.382812 123.296875 54.246094 123.296875 " fill-opacity="1" fill-rule="nonzero"/><path fill="rgb(32.939148%, 47.44873%, 96.859741%)" d="M 52.929688 112.160156 C 51.378906 112.160156 50.011719 111.136719 49.578125 109.644531 L 47.980469 104.179688 C 47.667969 103.117188 46.695312 102.386719 45.589844 102.386719 L 25.457031 102.386719 C 24.011719 102.386719 22.839844 103.5625 22.839844 105.007812 L 22.839844 123.054688 L 57.214844 123.054688 L 57.214844 114.78125 C 57.214844 113.332031 56.042969 112.160156 54.597656 112.160156 L 52.929688 112.160156 " fill-opacity="1" fill-rule="nonzero"/><path fill="rgb(0%, 0%, 0%)" d="M 23.082031 122.8125 L 56.972656 122.8125 L 56.972656 114.78125 C 56.972656 113.46875 55.910156 112.402344 54.597656 112.402344 L 52.929688 112.402344 C 51.28125 112.402344 49.808594 111.296875 49.34375 109.710938 L 47.746094 104.25 C 47.46875 103.296875 46.582031 102.628906 45.589844 102.628906 L 25.457031 102.628906 C 24.148438 102.628906 23.082031 103.695312 23.082031 105.007812 Z M 57.214844 123.296875 L 22.839844 123.296875 C 22.707031 123.296875 22.597656 123.1875 22.597656 123.054688 L 22.597656 105.007812 C 22.597656 103.429688 23.882812 102.144531 25.457031 102.144531 L 45.589844 102.144531 C 46.796875 102.144531 47.875 102.953125 48.210938 104.113281 L 49.808594 109.578125 C 50.210938 110.957031 51.496094 111.917969 52.929688 111.917969 L 54.597656 111.917969 C 56.175781 111.917969 57.457031 113.203125 57.457031 114.78125 L 57.457031 123.054688 C 57.457031 123.1875 57.347656 123.296875 57.214844 123.296875 " fill-opacity="1" fill-rule="nonzero"/><path fill="rgb(100%, 46.269226%, 0%)" d="M 55.914062 115.109375 C 55.914062 115.894531 55.277344 116.53125 54.492188 116.53125 C 53.707031 116.53125 53.070312 115.894531 53.070312 115.109375 C 53.070312 114.324219 53.707031 113.683594 54.492188 113.683594 C 55.277344 113.683594 55.914062 114.324219 55.914062 115.109375 " fill-opacity="1" fill-rule="nonzero"/><path fill="rgb(0%, 0%, 0%)" d="M 60.683594 123.535156 L 16.5 123.535156 L 16.5 121.5625 L 60.683594 121.5625 L 60.683594 123.535156 " fill-opacity="1" fill-rule="nonzero"/><path fill="rgb(32.939148%, 47.44873%, 96.859741%)" d="M 147.140625 111.441406 L 68.183594 100.445312 C 66.203125 100.191406 64.714844 98.5 64.714844 96.5 L 63.632812 41.34375 C 63.632812 41.34375 65.433594 40.046875 66.453125 39.546875 C 66.972656 39.292969 67.570312 39.183594 68.191406 39.261719 L 146.914062 49.316406 C 148.898438 49.570312 150.382812 51.261719 150.382812 53.261719 L 150.382812 107.433594 C 150.382812 108.402344 149.941406 109.257812 149.253906 109.820312 C 148.625 110.339844 147.140625 111.441406 147.140625 111.441406 " fill-opacity="1" fill-rule="nonzero"/><path fill="rgb(100%, 46.269226%, 0%)" d="M 144.730469 112.171875 L 66.007812 102.117188 C 64.027344 101.867188 62.542969 100.175781 62.542969 98.175781 L 62.542969 44.003906 C 62.542969 42.140625 64.171875 40.703125 66.015625 40.9375 L 144.738281 50.992188 C 146.722656 51.246094 148.207031 52.933594 148.207031 54.9375 L 148.207031 109.109375 C 148.207031 110.96875 146.574219 112.410156 144.730469 112.171875 " fill-opacity="1" fill-rule="nonzero"/><path fill="rgb(100%, 100%, 100%)" d="M 143.058594 109.941406 L 67.890625 100.339844 C 66.449219 100.15625 65.367188 98.925781 65.367188 97.472656 L 65.367188 45.21875 C 65.367188 43.976562 66.457031 43.015625 67.691406 43.171875 L 142.855469 52.773438 C 144.296875 52.957031 145.378906 54.183594 145.378906 55.640625 L 145.378906 107.894531 C 145.378906 109.136719 144.289062 110.097656 143.058594 109.941406 " fill-opacity="1" fill-rule="nonzero"/><path fill="rgb(0%, 0%, 0%)" d="M 145.121094 112.441406 C 144.980469 112.441406 144.839844 112.429688 144.703125 112.414062 L 65.980469 102.359375 C 63.882812 102.089844 62.300781 100.292969 62.300781 98.175781 L 62.300781 75.972656 C 62.300781 75.839844 62.40625 75.730469 62.542969 75.730469 C 62.675781 75.730469 62.785156 75.839844 62.785156 75.972656 L 62.785156 98.175781 C 62.785156 100.046875 64.183594 101.640625 66.039062 101.878906 L 144.761719 111.933594 C 145.570312 112.035156 146.386719 111.785156 147 111.246094 C 147.613281 110.703125 147.964844 109.925781 147.964844 109.109375 L 147.964844 54.9375 C 147.964844 53.0625 146.566406 51.46875 144.707031 51.230469 L 104.136719 46.050781 C 104.003906 46.035156 103.910156 45.914062 103.925781 45.78125 C 103.941406 45.648438 104.066406 45.554688 104.195312 45.570312 L 144.769531 50.753906 C 146.867188 51.019531 148.449219 52.820312 148.449219 54.9375 L 148.449219 109.109375 C 148.449219 110.066406 148.039062 110.976562 147.320312 111.609375 C 146.710938 112.148438 145.925781 112.441406 145.121094 112.441406 " fill-opacity="1" fill-rule="nonzero"/><path fill="rgb(0%, 0%, 0%)" d="M 62.542969 58.050781 C 62.40625 58.050781 62.300781 57.941406 62.300781 57.808594 L 62.300781 44.003906 C 62.300781 43.046875 62.710938 42.136719 63.429688 41.503906 C 64.144531 40.871094 65.101562 40.578125 66.046875 40.699219 L 84.585938 43.066406 C 84.71875 43.082031 84.8125 43.203125 84.792969 43.335938 C 84.777344 43.46875 84.65625 43.5625 84.523438 43.546875 L 65.984375 41.179688 C 65.175781 41.074219 64.359375 41.328125 63.746094 41.867188 C 63.132812 42.40625 62.78125 43.1875 62.78125 44.003906 L 62.78125 57.808594 C 62.78125 57.941406 62.675781 58.050781 62.542969 58.050781 " fill-opacity="1" fill-rule="nonzero"/><path fill="rgb(32.939148%, 47.44873%, 96.859741%)" d="M 98.804688 144.078125 L 17.84375 133.621094 C 17.207031 133.539062 16.851562 133.007812 16.859375 132.476562 C 16.863281 132.109375 16.894531 129.527344 16.894531 129.527344 L 59.703125 105.019531 C 61.847656 103.792969 64.625 103.320312 67.074219 103.632812 L 147.015625 113.960938 C 147.496094 114.023438 147.910156 114.335938 148.097656 114.78125 L 148.226562 115.082031 C 148.226562 115.082031 148.160156 117.234375 148.1875 117.738281 C 148.207031 118.132812 148.03125 118.539062 147.621094 118.773438 L 105.886719 142.671875 C 103.742188 143.894531 101.253906 144.390625 98.804688 144.078125 " fill-opacity="1" fill-rule="nonzero"/><path fill="rgb(100%, 0%, 32.159424%)" d="M 98.804688 141.203125 L 18.132812 130.765625 C 17.0625 130.628906 16.78125 129.207031 17.714844 128.671875 L 59.226562 104.929688 C 61.371094 103.703125 63.859375 103.207031 66.308594 103.523438 L 146.980469 113.957031 C 148.050781 114.097656 148.332031 115.519531 147.394531 116.054688 L 105.886719 139.796875 C 103.742188 141.023438 101.253906 141.519531 98.804688 141.203125 " fill-opacity="1" fill-rule="nonzero"/><path fill="rgb(0%, 0%, 0%)" d="M 98.835938 140.964844 C 101.21875 141.269531 103.679688 140.78125 105.765625 139.585938 L 147.277344 115.84375 C 147.683594 115.609375 147.765625 115.207031 147.703125 114.90625 C 147.644531 114.601562 147.414062 114.257812 146.949219 114.199219 L 66.277344 103.761719 C 63.894531 103.457031 61.433594 103.945312 59.347656 105.136719 L 17.835938 128.882812 C 17.429688 129.113281 17.347656 129.519531 17.410156 129.820312 C 17.46875 130.125 17.699219 130.46875 18.164062 130.527344 Z M 100.230469 141.535156 C 99.746094 141.535156 99.257812 141.507812 98.773438 141.445312 L 18.101562 131.007812 C 17.507812 130.929688 17.050781 130.503906 16.933594 129.917969 C 16.816406 129.328125 17.078125 128.757812 17.597656 128.460938 L 59.109375 104.71875 C 61.285156 103.472656 63.851562 102.960938 66.339844 103.28125 L 147.011719 113.71875 C 147.605469 113.792969 148.0625 114.222656 148.179688 114.808594 C 148.296875 115.398438 148.035156 115.96875 147.515625 116.265625 L 106.003906 140.007812 C 104.253906 141.011719 102.246094 141.535156 100.230469 141.535156 " fill-opacity="1" fill-rule="nonzero"/><path fill="rgb(100%, 46.269226%, 0%)" d="M 114.601562 128.023438 L 44.644531 118.910156 C 43.679688 118.785156 43.425781 117.5 44.269531 117.015625 L 60.71875 107.703125 C 62.65625 106.59375 64.902344 106.148438 67.113281 106.433594 L 137.070312 115.546875 C 138.035156 115.671875 138.289062 116.957031 137.441406 117.441406 L 120.996094 126.753906 C 119.058594 127.863281 116.8125 128.308594 114.601562 128.023438 " fill-opacity="1" fill-rule="nonzero"/><path fill="rgb(100%, 0%, 32.159424%)" d="M 135.636719 59.933594 L 103.210938 56.269531 L 103.214844 54.578125 L 135.644531 58.242188 L 135.636719 59.933594 " fill-opacity="1" fill-rule="nonzero"/><path fill="rgb(100%, 46.269226%, 0%)" d="M 142.988281 63.558594 L 109.945312 59.824219 L 109.953125 58.132812 L 142.992188 61.863281 L 142.988281 63.558594 " fill-opacity="1" fill-rule="nonzero"/><path fill="rgb(100%, 0%, 32.159424%)" d="M 138.992188 65.898438 L 121.914062 63.96875 L 121.921875 62.277344 L 139 64.203125 L 138.992188 65.898438 " fill-opacity="1" fill-rule="nonzero"/><path fill="rgb(100%, 0%, 32.159424%)" d="M 135.554688 82.261719 L 103.128906 78.597656 L 103.132812 76.90625 L 135.5625 80.566406 L 135.554688 82.261719 " fill-opacity="1" fill-rule="nonzero"/><path fill="rgb(100%, 46.269226%, 0%)" d="M 142.902344 85.882812 L 109.863281 82.152344 L 109.871094 80.457031 L 142.910156 84.191406 L 142.902344 85.882812 " fill-opacity="1" fill-rule="nonzero"/><path fill="rgb(100%, 46.269226%, 0%)" d="M 142.894531 88.675781 L 121.832031 86.292969 L 121.835938 84.601562 L 142.898438 86.980469 L 142.894531 88.675781 " fill-opacity="1" fill-rule="nonzero"/><path fill="rgb(100%, 46.269226%, 0%)" d="M 129.371094 89.824219 L 109.722656 87.601562 L 109.726562 85.910156 L 129.378906 88.128906 L 129.371094 89.824219 " fill-opacity="1" fill-rule="nonzero"/><path fill="rgb(100%, 46.269226%, 0%)" d="M 135.605469 68.308594 L 103.179688 64.644531 L 103.183594 62.949219 L 135.613281 66.613281 L 135.605469 68.308594 " fill-opacity="1" fill-rule="nonzero"/><path fill="rgb(100%, 46.269226%, 0%)" d="M 142.957031 71.929688 L 109.914062 68.195312 L 109.921875 66.503906 L 142.960938 70.238281 L 142.957031 71.929688 " fill-opacity="1" fill-rule="nonzero"/><path fill="rgb(100%, 0%, 32.159424%)" d="M 134.964844 76.609375 L 121.871094 75.132812 L 121.878906 73.4375 L 134.972656 74.917969 L 134.964844 76.609375 " fill-opacity="1" fill-rule="nonzero"/><path fill="rgb(100%, 46.269226%, 0%)" d="M 138.871094 79.84375 L 125.777344 78.363281 L 125.78125 76.671875 L 138.875 78.148438 L 138.871094 79.84375 " fill-opacity="1" fill-rule="nonzero"/><path fill="rgb(100%, 46.269226%, 0%)" d="M 142.945312 74.71875 L 121.882812 72.339844 L 121.886719 70.648438 L 142.949219 73.027344 L 142.945312 74.71875 " fill-opacity="1" fill-rule="nonzero"/><path fill="rgb(100%, 0%, 32.159424%)" d="M 135.515625 93.425781 L 103.085938 89.761719 L 103.09375 88.066406 L 135.519531 91.730469 L 135.515625 93.425781 " fill-opacity="1" fill-rule="nonzero"/><path fill="rgb(100%, 46.269226%, 0%)" d="M 141.800781 96.925781 L 109.824219 93.3125 L 109.828125 91.621094 L 141.808594 95.234375 L 141.800781 96.925781 " fill-opacity="1" fill-rule="nonzero"/><path fill="rgb(100%, 46.269226%, 0%)" d="M 142.851562 99.835938 L 121.789062 97.457031 L 121.796875 95.765625 L 142.859375 98.144531 L 142.851562 99.835938 " fill-opacity="1" fill-rule="nonzero"/><path fill="rgb(100%, 0%, 32.159424%)" d="M 135.484375 101.796875 L 103.054688 98.132812 L 103.0625 96.441406 L 135.492188 100.101562 L 135.484375 101.796875 " fill-opacity="1" fill-rule="nonzero"/><path fill="rgb(100%, 46.269226%, 0%)" d="M 142.832031 105.417969 L 109.792969 101.683594 L 109.796875 99.992188 L 142.839844 103.726562 L 142.832031 105.417969 " fill-opacity="1" fill-rule="nonzero"/><path fill="rgb(100%, 46.269226%, 0%)" d="M 100.4375 75.46875 L 97.28125 75.113281 L 97.285156 73.484375 L 100.445312 73.84375 L 100.4375 75.46875 " fill-opacity="1" fill-rule="nonzero"/><path fill="rgb(100%, 46.269226%, 0%)" d="M 100.628906 55.980469 L 97.335938 55.609375 L 97.339844 53.914062 L 100.632812 54.289062 L 100.628906 55.980469 " fill-opacity="1" fill-rule="nonzero"/><path fill="rgb(100%, 46.269226%, 0%)" d="M 100.636719 53.414062 L 97.34375 53.042969 L 97.351562 51.351562 L 100.644531 51.722656 L 100.636719 53.414062 " fill-opacity="1" fill-rule="nonzero"/><path fill="rgb(100%, 46.269226%, 0%)" d="M 100.59375 58.769531 L 97.324219 58.398438 L 97.332031 56.707031 L 100.597656 57.074219 L 100.59375 58.769531 " fill-opacity="1" fill-rule="nonzero"/><path fill="rgb(100%, 46.269226%, 0%)" d="M 100.472656 61.546875 L 97.371094 61.195312 L 97.375 59.503906 L 100.476562 59.851562 L 100.472656 61.546875 " fill-opacity="1" fill-rule="nonzero"/><path fill="rgb(100%, 46.269226%, 0%)" d="M 100.476562 64.339844 L 97.320312 63.980469 L 97.328125 62.289062 L 100.484375 62.644531 L 100.476562 64.339844 " fill-opacity="1" fill-rule="nonzero"/><path fill="rgb(100%, 46.269226%, 0%)" d="M 100.449219 67.128906 L 97.296875 66.769531 L 97.300781 65.078125 L 100.457031 65.433594 L 100.449219 67.128906 " fill-opacity="1" fill-rule="nonzero"/><path fill="rgb(100%, 46.269226%, 0%)" d="M 100.511719 72.605469 L 97.382812 72.253906 L 97.386719 70.558594 L 100.515625 70.914062 L 100.511719 72.605469 " fill-opacity="1" fill-rule="nonzero"/><path fill="rgb(100%, 46.269226%, 0%)" d="M 100.441406 69.804688 L 97.453125 69.46875 L 97.457031 67.777344 L 100.449219 68.113281 L 100.441406 69.804688 " fill-opacity="1" fill-rule="nonzero"/><path fill="rgb(100%, 46.269226%, 0%)" d="M 100.40625 83.945312 L 97.25 83.589844 L 97.253906 81.960938 L 100.414062 82.320312 L 100.40625 83.945312 " fill-opacity="1" fill-rule="nonzero"/><path fill="rgb(100%, 46.269226%, 0%)" d="M 100.480469 81.082031 L 97.351562 80.730469 L 97.355469 79.039062 L 100.484375 79.390625 L 100.480469 81.082031 " fill-opacity="1" fill-rule="nonzero"/><path fill="rgb(100%, 46.269226%, 0%)" d="M 100.410156 78.285156 L 97.417969 77.945312 L 97.425781 76.253906 L 100.417969 76.589844 L 100.410156 78.285156 " fill-opacity="1" fill-rule="nonzero"/><path fill="rgb(100%, 46.269226%, 0%)" d="M 100.347656 100.453125 L 97.1875 100.097656 L 97.195312 98.46875 L 100.351562 98.828125 L 100.347656 100.453125 " fill-opacity="1" fill-rule="nonzero"/><path fill="rgb(100%, 46.269226%, 0%)" d="M 100.378906 86.53125 L 97.277344 86.179688 L 97.285156 84.488281 L 100.386719 84.839844 L 100.378906 86.53125 " fill-opacity="1" fill-rule="nonzero"/><path fill="rgb(100%, 46.269226%, 0%)" d="M 100.386719 89.324219 L 97.230469 88.96875 L 97.238281 87.273438 L 100.394531 87.632812 L 100.386719 89.324219 " fill-opacity="1" fill-rule="nonzero"/><path fill="rgb(100%, 46.269226%, 0%)" d="M 100.359375 92.113281 L 97.203125 91.757812 L 97.210938 90.0625 L 100.367188 90.421875 L 100.359375 92.113281 " fill-opacity="1" fill-rule="nonzero"/><path fill="rgb(100%, 46.269226%, 0%)" d="M 100.417969 97.589844 L 97.289062 97.238281 L 97.296875 95.546875 L 100.425781 95.898438 L 100.417969 97.589844 " fill-opacity="1" fill-rule="nonzero"/><path fill="rgb(100%, 46.269226%, 0%)" d="M 100.351562 94.792969 L 97.359375 94.453125 L 97.367188 92.761719 L 100.355469 93.097656 L 100.351562 94.792969 " fill-opacity="1" fill-rule="nonzero"/><path fill="rgb(100%, 46.269226%, 0%)" d="M 83.515625 51.109375 L 67.90625 49.347656 L 67.910156 47.71875 L 83.519531 49.484375 L 83.515625 51.109375 " fill-opacity="1" fill-rule="nonzero"/><path fill="rgb(100%, 0%, 32.159424%)" d="M 86.613281 54.285156 L 70.160156 52.425781 L 70.164062 50.730469 L 86.621094 52.59375 L 86.613281 54.285156 " fill-opacity="1" fill-rule="nonzero"/><path fill="rgb(100%, 0%, 32.159424%)" d="M 91.265625 57.601562 L 72.09375 55.4375 L 72.101562 53.742188 L 91.269531 55.910156 L 91.265625 57.601562 " fill-opacity="1" fill-rule="nonzero"/><path fill="rgb(100%, 0%, 32.159424%)" d="M 94.070312 60.710938 L 78.074219 58.902344 L 78.082031 57.210938 L 94.078125 59.019531 L 94.070312 60.710938 " fill-opacity="1" fill-rule="nonzero"/><path fill="rgb(100%, 46.269226%, 0%)" d="M 80.46875 73.101562 L 67.824219 71.671875 L 67.828125 70.046875 L 80.472656 71.472656 L 80.46875 73.101562 " fill-opacity="1" fill-rule="nonzero"/><path fill="rgb(100%, 0%, 32.159424%)" d="M 81.019531 75.988281 L 71.773438 74.941406 L 71.777344 73.25 L 81.023438 74.296875 L 81.019531 75.988281 " fill-opacity="1" fill-rule="nonzero"/><path fill="rgb(100%, 0%, 32.159424%)" d="M 84.679688 79.195312 L 75.828125 78.191406 L 75.835938 76.5 L 84.6875 77.5 L 84.679688 79.195312 " fill-opacity="1" fill-rule="nonzero"/><path fill="rgb(100%, 0%, 32.159424%)" d="M 90.890625 82.6875 L 79.6875 81.421875 L 79.695312 79.726562 L 90.894531 80.996094 L 90.890625 82.6875 " fill-opacity="1" fill-rule="nonzero"/><path fill="rgb(100%, 46.269226%, 0%)" d="M 79.371094 61.839844 L 68.066406 60.566406 L 68.074219 58.871094 L 79.378906 60.148438 L 79.371094 61.839844 " fill-opacity="1" fill-rule="nonzero"/><path fill="rgb(100%, 0%, 32.159424%)" d="M 93.773438 66.261719 L 76.304688 64.289062 L 76.308594 62.59375 L 93.777344 64.566406 L 93.773438 66.261719 " fill-opacity="1" fill-rule="nonzero"/><path fill="rgb(100%, 46.269226%, 0%)" d="M 79.492188 67.433594 L 68.1875 66.15625 L 68.195312 64.464844 L 79.5 65.742188 L 79.492188 67.433594 " fill-opacity="1" fill-rule="nonzero"/><path fill="rgb(100%, 0%, 32.159424%)" d="M 93.894531 71.855469 L 76.425781 69.878906 L 76.429688 68.1875 L 93.898438 70.160156 L 93.894531 71.855469 " fill-opacity="1" fill-rule="nonzero"/><path fill="rgb(100%, 46.269226%, 0%)" d="M 81.839844 84.421875 L 67.78125 82.835938 L 67.789062 81.207031 L 81.84375 82.796875 L 81.839844 84.421875 " fill-opacity="1" fill-rule="nonzero"/><path fill="rgb(100%, 0%, 32.159424%)" d="M 91.292969 88.316406 L 68.339844 85.722656 L 68.34375 84.03125 L 91.300781 86.625 L 91.292969 88.316406 " fill-opacity="1" fill-rule="nonzero"/><path fill="rgb(100%, 0%, 32.159424%)" d="M 91.566406 91.140625 L 78.386719 89.648438 L 78.394531 87.957031 L 91.570312 89.445312 L 91.566406 91.140625 " fill-opacity="1" fill-rule="nonzero"/><path fill="rgb(100%, 46.269226%, 0%)" d="M 86.738281 96.175781 L 71.558594 94.460938 L 71.566406 92.769531 L 86.746094 94.484375 L 86.738281 96.175781 " fill-opacity="1" fill-rule="nonzero"/><path fill="rgb(100%, 0%, 32.159424%)" d="M 94.523438 94.042969 L 81.882812 92.617188 L 81.890625 90.921875 L 94.527344 92.351562 L 94.523438 94.042969 " fill-opacity="1" fill-rule="nonzero"/><path fill="rgb(100%, 0%, 32.159424%)" d="M 89.695312 99.304688 L 77.738281 97.953125 L 77.742188 96.257812 L 89.699219 97.609375 L 89.695312 99.304688 " fill-opacity="1" fill-rule="nonzero"/><path fill="rgb(32.939148%, 47.44873%, 96.859741%)" d="M 69.039062 64.609375 C 70.890625 64.992188 72.140625 66.5625 71.878906 68.175781 C 71.613281 69.804688 69.90625 70.902344 68.011719 70.65625 L 32.433594 66.066406 C 29.671875 65.710938 27.632812 63.515625 27.835938 61.117188 C 27.945312 59.855469 28.671875 58.714844 29.832031 57.988281 C 30.996094 57.261719 32.480469 57.019531 33.917969 57.316406 L 69.039062 64.609375 " fill-opacity="1" fill-rule="nonzero"/><path fill="rgb(0%, 0%, 0%)" d="M 32.710938 57.433594 C 31.722656 57.433594 30.757812 57.695312 29.960938 58.195312 C 28.867188 58.878906 28.179688 59.953125 28.078125 61.140625 C 27.882812 63.425781 29.808594 65.484375 32.464844 65.828125 L 68.042969 70.417969 C 69.816406 70.644531 71.394531 69.644531 71.640625 68.136719 C 71.882812 66.648438 70.714844 65.203125 68.988281 64.84375 L 33.871094 57.554688 C 33.484375 57.472656 33.097656 57.433594 32.710938 57.433594 Z M 68.546875 70.933594 C 68.359375 70.933594 68.171875 70.921875 67.980469 70.898438 L 32.402344 66.308594 C 29.492188 65.933594 27.378906 63.644531 27.597656 61.097656 C 27.710938 59.757812 28.480469 58.550781 29.703125 57.785156 C 30.917969 57.023438 32.472656 56.769531 33.96875 57.078125 L 69.085938 64.371094 C 71.070312 64.78125 72.402344 66.472656 72.117188 68.214844 C 71.859375 69.816406 70.339844 70.933594 68.546875 70.933594 " fill-opacity="1" fill-rule="nonzero"/><path fill="rgb(32.939148%, 47.44873%, 96.859741%)" d="M 42.527344 102.925781 C 42.792969 105.097656 42.160156 107.289062 40.773438 108.984375 C 39.386719 110.679688 37.371094 111.734375 35.1875 111.902344 C 32.992188 112.070312 30.824219 111.324219 29.195312 109.84375 C 27.5625 108.359375 26.613281 106.269531 26.570312 104.0625 L 26.898438 62.378906 C 26.839844 59.371094 29.136719 56.835938 32.132812 56.605469 C 35.152344 56.375 37.820312 58.5625 38.191406 61.574219 L 42.527344 102.925781 " fill-opacity="1" fill-rule="nonzero"/><path fill="rgb(0%, 0%, 0%)" d="M 32.574219 56.832031 C 32.433594 56.832031 32.292969 56.835938 32.152344 56.847656 C 29.285156 57.066406 27.085938 59.496094 27.140625 62.375 L 26.8125 104.066406 C 26.855469 106.1875 27.78125 108.230469 29.355469 109.664062 C 30.929688 111.09375 33.050781 111.824219 35.171875 111.660156 C 37.273438 111.5 39.25 110.46875 40.585938 108.832031 C 41.921875 107.195312 42.542969 105.054688 42.285156 102.953125 C 42.285156 102.953125 42.285156 102.953125 42.285156 102.949219 L 37.949219 61.597656 C 37.613281 58.855469 35.292969 56.832031 32.574219 56.832031 Z M 34.585938 112.167969 C 32.542969 112.167969 30.550781 111.402344 29.03125 110.023438 C 27.359375 108.5 26.375 106.332031 26.328125 104.066406 L 26.65625 62.378906 C 26.59375 59.25 28.992188 56.605469 32.113281 56.363281 C 35.269531 56.125 38.046875 58.398438 38.429688 61.542969 L 42.765625 102.898438 C 43.039062 105.125 42.382812 107.398438 40.960938 109.136719 C 39.539062 110.875 37.441406 111.972656 35.207031 112.144531 C 35 112.160156 34.792969 112.167969 34.585938 112.167969 " fill-opacity="1" fill-rule="nonzero"/><path fill="rgb(100%, 46.269226%, 0%)" d="M 35.351562 98.734375 C 37.949219 99.3125 39.582031 101.894531 39.003906 104.496094 C 38.421875 107.097656 35.847656 108.734375 33.25 108.15625 C 30.652344 107.574219 29.019531 104.996094 29.597656 102.394531 C 30.175781 99.789062 32.753906 98.152344 35.351562 98.734375 " fill-opacity="1" fill-rule="nonzero"/><path fill="rgb(100%, 46.269226%, 0%)" d="M 33.316406 59.003906 C 35.058594 59.390625 36.152344 61.121094 35.765625 62.863281 C 35.375 64.605469 33.652344 65.703125 31.910156 65.3125 C 30.171875 64.925781 29.078125 63.195312 29.464844 61.453125 C 29.851562 59.710938 31.578125 58.613281 33.316406 59.003906 " fill-opacity="1" fill-rule="nonzero"/><path fill="rgb(0%, 0%, 0%)" d="M 34.476562 110.324219 C 34 110.324219 33.519531 110.269531 33.039062 110.164062 C 32.519531 110.046875 32.019531 109.871094 31.546875 109.636719 C 31.425781 109.578125 31.378906 109.433594 31.4375 109.3125 C 31.496094 109.191406 31.640625 109.144531 31.761719 109.203125 C 32.199219 109.417969 32.664062 109.582031 33.144531 109.691406 C 35.828125 110.289062 38.609375 109.011719 39.902344 106.585938 C 39.964844 106.46875 40.109375 106.421875 40.226562 106.484375 C 40.347656 106.550781 40.390625 106.695312 40.328125 106.8125 C 39.164062 109 36.882812 110.324219 34.476562 110.324219 " fill-opacity="1" fill-rule="nonzero"/><path fill="rgb(0%, 0%, 0%)" d="M 40.699219 105.253906 C 40.6875 105.253906 40.675781 105.253906 40.664062 105.253906 C 40.535156 105.234375 40.441406 105.113281 40.457031 104.980469 C 40.601562 103.898438 40.449219 102.789062 40.023438 101.78125 C 39.96875 101.65625 40.027344 101.515625 40.148438 101.460938 C 40.273438 101.410156 40.414062 101.46875 40.46875 101.589844 C 40.929688 102.679688 41.089844 103.875 40.9375 105.042969 C 40.921875 105.164062 40.816406 105.253906 40.699219 105.253906 " fill-opacity="1" fill-rule="nonzero"/><path fill="rgb(0%, 0%, 0%)" d="M 34.640625 66.164062 C 34.554688 66.164062 34.46875 66.121094 34.425781 66.039062 C 34.363281 65.917969 34.40625 65.773438 34.523438 65.710938 C 35.359375 65.257812 36.011719 64.527344 36.359375 63.644531 C 36.40625 63.523438 36.546875 63.460938 36.671875 63.511719 C 36.796875 63.558594 36.859375 63.699219 36.808594 63.824219 C 36.417969 64.808594 35.691406 65.628906 34.753906 66.136719 C 34.71875 66.15625 34.679688 66.164062 34.640625 66.164062 " fill-opacity="1" fill-rule="nonzero"/><path fill="rgb(0%, 0%, 0%)" d="M 36.675781 61.082031 C 36.574219 61.082031 36.480469 61.015625 36.445312 60.914062 C 36.007812 59.5625 34.875 58.53125 33.492188 58.21875 C 32.402344 57.976562 31.253906 58.199219 30.332031 58.832031 C 30.222656 58.910156 30.074219 58.878906 29.996094 58.769531 C 29.921875 58.660156 29.949219 58.507812 30.058594 58.433594 C 31.089844 57.726562 32.378906 57.476562 33.597656 57.746094 C 35.148438 58.09375 36.414062 59.25 36.90625 60.765625 C 36.949219 60.890625 36.878906 61.027344 36.75 61.070312 C 36.726562 61.078125 36.703125 61.082031 36.675781 61.082031 " fill-opacity="1" fill-rule="nonzero"/><path fill="rgb(0%, 0%, 0%)" d="M 75.351562 88.9375 L 81.890625 85.425781 L 83.726562 87.316406 L 86.253906 92.035156 L 86.855469 94.691406 L 80.316406 98.207031 L 75.351562 88.9375 " fill-opacity="1" fill-rule="nonzero"/><path fill="rgb(0%, 0%, 0%)" d="M 75.679688 89.039062 L 80.417969 97.878906 L 86.578125 94.566406 L 86.027344 92.117188 L 83.53125 87.460938 L 81.84375 85.722656 Z M 80.316406 98.449219 C 80.292969 98.449219 80.269531 98.445312 80.246094 98.4375 C 80.1875 98.417969 80.136719 98.375 80.105469 98.320312 L 75.140625 89.054688 C 75.074219 88.9375 75.121094 88.789062 75.238281 88.726562 L 81.773438 85.210938 C 81.871094 85.160156 81.988281 85.179688 82.0625 85.253906 L 83.902344 87.148438 C 83.917969 87.164062 83.929688 87.179688 83.941406 87.199219 L 86.46875 91.917969 C 86.480469 91.9375 86.488281 91.957031 86.492188 91.980469 L 87.089844 94.636719 C 87.113281 94.746094 87.066406 94.851562 86.96875 94.90625 L 80.433594 98.417969 C 80.398438 98.4375 80.359375 98.449219 80.316406 98.449219 " fill-opacity="1" fill-rule="nonzero"/><path fill="rgb(0%, 0%, 0%)" d="M 129.53125 65.75 C 134.023438 74.136719 130.882812 84.582031 122.511719 89.082031 C 114.140625 93.582031 103.710938 90.433594 99.21875 82.046875 C 94.726562 73.664062 97.871094 63.21875 106.242188 58.71875 C 114.609375 54.21875 125.039062 57.367188 129.53125 65.75 Z M 105.441406 57.230469 C 96.25 62.171875 92.800781 73.640625 97.734375 82.847656 C 102.667969 92.054688 114.117188 95.511719 123.308594 90.570312 C 132.5 85.628906 135.953125 74.160156 131.019531 64.953125 C 126.085938 55.746094 114.632812 52.289062 105.441406 57.230469 " fill-opacity="1" fill-rule="nonzero"/><path fill="rgb(0%, 0%, 0%)" d="M 75.183594 97.257812 C 74.316406 97.726562 73.234375 97.398438 72.769531 96.527344 L 72.578125 96.167969 C 72.109375 95.296875 72.4375 94.214844 73.304688 93.746094 L 95.917969 81.589844 L 97.800781 85.097656 L 75.183594 97.257812 " fill-opacity="1" fill-rule="nonzero"/><path fill="rgb(100%, 46.269226%, 0%)" d="M 84.707031 89.238281 C 84.621094 89.238281 84.539062 89.191406 84.492188 89.113281 C 84.429688 88.992188 84.472656 88.847656 84.59375 88.785156 L 86.484375 87.765625 C 86.601562 87.703125 86.75 87.746094 86.8125 87.867188 C 86.875 87.984375 86.828125 88.128906 86.710938 88.195312 L 84.820312 89.210938 C 84.785156 89.230469 84.746094 89.238281 84.707031 89.238281 " fill-opacity="1" fill-rule="nonzero"/><path fill="rgb(0%, 0%, 0%)" d="M 91.910156 88.386719 L 90.023438 84.871094 C 89.765625 84.390625 89.949219 83.789062 90.429688 83.53125 L 91.671875 82.859375 C 92.152344 82.601562 92.753906 82.785156 93.011719 83.265625 L 94.894531 86.78125 C 95.152344 87.265625 94.972656 87.867188 94.492188 88.125 L 93.25 88.792969 C 92.765625 89.050781 92.167969 88.871094 91.910156 88.386719 " fill-opacity="1" fill-rule="nonzero"/><path fill="rgb(100%, 0%, 32.159424%)" d="M 92.121094 88.273438 C 92.21875 88.449219 92.375 88.578125 92.566406 88.636719 C 92.757812 88.695312 92.957031 88.671875 93.132812 88.578125 L 94.378906 87.910156 C 94.742188 87.714844 94.878906 87.261719 94.683594 86.898438 L 92.796875 83.378906 C 92.703125 83.203125 92.546875 83.074219 92.355469 83.015625 C 92.164062 82.960938 91.960938 82.980469 91.785156 83.074219 L 90.542969 83.742188 C 90.179688 83.9375 90.042969 84.394531 90.238281 84.757812 Z M 92.78125 89.152344 C 92.664062 89.152344 92.542969 89.136719 92.425781 89.101562 C 92.109375 89.003906 91.851562 88.792969 91.695312 88.503906 L 89.8125 84.984375 C 89.492188 84.386719 89.714844 83.636719 90.3125 83.316406 L 91.558594 82.648438 C 91.847656 82.492188 92.179688 82.460938 92.496094 82.554688 C 92.808594 82.648438 93.070312 82.859375 93.222656 83.152344 L 95.109375 86.667969 C 95.429688 87.265625 95.203125 88.015625 94.605469 88.335938 L 93.363281 89.007812 C 93.183594 89.101562 92.984375 89.152344 92.78125 89.152344 " fill-opacity="1" fill-rule="nonzero"/><path fill="rgb(0%, 0%, 0%)" d="M 127.785156 66.910156 C 127.699219 66.910156 127.613281 66.863281 127.570312 66.78125 C 126.851562 65.441406 125.945312 64.226562 124.871094 63.167969 C 124.773438 63.074219 124.773438 62.921875 124.867188 62.828125 C 124.960938 62.730469 125.113281 62.730469 125.210938 62.824219 C 126.316406 63.914062 127.253906 65.167969 127.996094 66.550781 C 128.0625 66.671875 128.015625 66.816406 127.898438 66.878906 C 127.863281 66.902344 127.824219 66.910156 127.785156 66.910156 " fill-opacity="1" fill-rule="nonzero"/><path fill="rgb(0%, 0%, 0%)" d="M 107.273438 87.617188 C 107.234375 87.617188 107.195312 87.609375 107.160156 87.589844 C 104.425781 86.148438 102.207031 83.941406 100.742188 81.207031 C 96.707031 73.679688 99.539062 64.269531 107.054688 60.226562 C 112.480469 57.308594 119.113281 57.894531 123.953125 61.714844 C 124.058594 61.796875 124.074219 61.949219 123.992188 62.050781 C 123.910156 62.15625 123.757812 62.175781 123.652344 62.09375 C 118.964844 58.394531 112.539062 57.828125 107.285156 60.65625 C 100.003906 64.570312 97.261719 73.6875 101.167969 80.976562 C 102.589844 83.628906 104.738281 85.765625 107.382812 87.160156 C 107.503906 87.222656 107.550781 87.367188 107.484375 87.488281 C 107.441406 87.570312 107.359375 87.617188 107.273438 87.617188 " fill-opacity="1" fill-rule="nonzero"/><path fill="rgb(0%, 0%, 0%)" d="M 65.222656 67.992188 C 64.757812 67.175781 64.648438 66.203125 64.921875 65.300781 C 65.195312 64.402344 65.824219 63.652344 66.664062 63.230469 C 67.589844 62.769531 68.660156 62.703125 69.632812 63.050781 C 70.609375 63.402344 71.398438 64.132812 71.816406 65.082031 L 82.230469 88.511719 L 78.066406 90.601562 L 65.222656 67.992188 " fill-opacity="1" fill-rule="nonzero"/><path fill="rgb(0%, 0%, 0%)" d="M 65.433594 67.871094 L 78.164062 90.28125 L 81.914062 88.398438 L 71.597656 65.179688 C 71.203125 64.296875 70.460938 63.605469 69.554688 63.28125 C 68.648438 62.957031 67.632812 63.015625 66.773438 63.449219 C 65.996094 63.839844 65.40625 64.539062 65.152344 65.371094 C 64.898438 66.207031 65.003906 67.117188 65.433594 67.871094 Z M 78.066406 90.84375 C 77.984375 90.84375 77.902344 90.796875 77.855469 90.71875 L 65.011719 68.113281 C 64.515625 67.242188 64.398438 66.191406 64.691406 65.230469 C 64.980469 64.273438 65.660156 63.464844 66.554688 63.015625 C 67.535156 62.523438 68.6875 62.453125 69.714844 62.824219 C 70.746094 63.195312 71.59375 63.980469 72.039062 64.980469 L 82.453125 88.414062 C 82.503906 88.53125 82.453125 88.667969 82.339844 88.726562 L 78.175781 90.816406 C 78.140625 90.832031 78.105469 90.84375 78.066406 90.84375 " fill-opacity="1" fill-rule="nonzero"/><path fill="rgb(32.939148%, 47.44873%, 96.859741%)" d="M 65.066406 68.460938 C 64.601562 67.644531 64.492188 66.671875 64.765625 65.773438 C 65.039062 64.871094 65.667969 64.125 66.507812 63.703125 C 67.433594 63.238281 68.503906 63.171875 69.480469 63.523438 C 70.453125 63.871094 71.242188 64.605469 71.660156 65.550781 L 82.074219 88.980469 L 77.910156 91.070312 L 65.066406 68.460938 " fill-opacity="1" fill-rule="nonzero"/><path fill="rgb(0%, 0%, 0%)" d="M 65.277344 68.34375 L 78.007812 90.75 L 81.757812 88.867188 L 71.441406 65.648438 C 71.050781 64.765625 70.304688 64.074219 69.398438 63.75 C 68.492188 63.425781 67.476562 63.488281 66.617188 63.917969 C 65.839844 64.308594 65.25 65.007812 64.996094 65.84375 C 64.742188 66.675781 64.847656 67.585938 65.277344 68.34375 Z M 77.910156 91.3125 C 77.828125 91.3125 77.746094 91.269531 77.703125 91.191406 L 64.855469 68.582031 C 64.359375 67.710938 64.242188 66.660156 64.535156 65.703125 C 64.824219 64.742188 65.503906 63.933594 66.398438 63.484375 C 67.378906 62.996094 68.53125 62.925781 69.5625 63.292969 C 70.589844 63.664062 71.4375 64.449219 71.882812 65.453125 L 82.296875 88.882812 C 82.347656 89 82.296875 89.140625 82.183594 89.199219 L 78.019531 91.285156 C 77.984375 91.304688 77.949219 91.3125 77.910156 91.3125 " fill-opacity="1" fill-rule="nonzero"/><path fill="rgb(32.939148%, 47.44873%, 96.859741%)" d="M 75.320312 88.714844 L 81.953125 85.386719 L 82.355469 87.964844 L 84.675781 92.605469 L 86.65625 94.792969 L 80.019531 98.121094 L 78.214844 96.277344 L 75.65625 91.160156 L 75.320312 88.714844 " fill-opacity="1" fill-rule="nonzero"/><path fill="rgb(0%, 0%, 0%)" d="M 78.414062 96.136719 L 80.070312 97.824219 L 86.261719 94.71875 L 84.496094 92.765625 C 84.480469 92.75 84.46875 92.730469 84.460938 92.710938 L 82.140625 88.074219 C 82.128906 88.050781 82.121094 88.027344 82.117188 88.003906 L 81.765625 85.753906 L 75.582031 88.855469 L 75.890625 91.089844 Z M 80.023438 98.363281 C 79.957031 98.363281 79.894531 98.335938 79.847656 98.289062 L 78.042969 96.449219 C 78.027344 96.429688 78.011719 96.410156 78 96.386719 L 75.441406 91.269531 C 75.429688 91.246094 75.421875 91.222656 75.417969 91.195312 L 75.082031 88.75 C 75.066406 88.644531 75.121094 88.546875 75.210938 88.5 L 81.84375 85.171875 C 81.914062 85.136719 81.996094 85.136719 82.0625 85.171875 C 82.132812 85.207031 82.179688 85.273438 82.191406 85.351562 L 82.589844 87.890625 L 84.875 92.464844 L 86.835938 94.628906 C 86.886719 94.6875 86.90625 94.761719 86.894531 94.835938 C 86.878906 94.910156 86.832031 94.976562 86.761719 95.007812 L 80.128906 98.335938 C 80.097656 98.351562 80.058594 98.363281 80.023438 98.363281 " fill-opacity="1" fill-rule="nonzero"/><path fill="rgb(100%, 46.269226%, 0%)" d="M 67.992188 68.386719 C 67.265625 68.144531 66.875 67.363281 67.117188 66.636719 C 67.355469 65.910156 68.140625 65.519531 68.863281 65.757812 C 69.589844 66 69.980469 66.785156 69.738281 67.511719 C 69.5 68.238281 68.714844 68.628906 67.992188 68.386719 " fill-opacity="1" fill-rule="nonzero"/><path fill="rgb(32.939148%, 47.44873%, 96.859741%)" d="M 83.550781 94.238281 L 80.550781 95.742188 L 83.550781 94.238281 " fill-opacity="1" fill-rule="nonzero"/><path fill="rgb(0%, 0%, 0%)" d="M 80.550781 95.984375 C 80.464844 95.984375 80.378906 95.9375 80.335938 95.851562 C 80.273438 95.730469 80.324219 95.585938 80.445312 95.527344 L 83.441406 94.023438 C 83.5625 93.960938 83.707031 94.011719 83.765625 94.128906 C 83.828125 94.25 83.777344 94.394531 83.660156 94.453125 L 80.660156 95.960938 C 80.625 95.976562 80.589844 95.984375 80.550781 95.984375 " fill-opacity="1" fill-rule="nonzero"/><path fill="rgb(32.939148%, 47.44873%, 96.859741%)" d="M 80.71875 88.769531 L 77.71875 90.277344 L 80.71875 88.769531 " fill-opacity="1" fill-rule="nonzero"/><path fill="rgb(0%, 0%, 0%)" d="M 77.71875 90.515625 C 77.632812 90.515625 77.546875 90.46875 77.503906 90.382812 C 77.441406 90.265625 77.492188 90.117188 77.609375 90.058594 L 80.609375 88.554688 C 80.730469 88.496094 80.875 88.542969 80.933594 88.664062 C 80.996094 88.78125 80.945312 88.925781 80.828125 88.988281 L 77.828125 90.492188 C 77.792969 90.507812 77.757812 90.515625 77.71875 90.515625 " fill-opacity="1" fill-rule="nonzero"/><path fill="rgb(0%, 0%, 0%)" d="M 68.429688 69.5625 C 68.164062 69.5625 67.902344 69.519531 67.644531 69.433594 C 67.460938 69.371094 67.285156 69.289062 67.121094 69.1875 C 67.007812 69.117188 66.972656 68.96875 67.042969 68.855469 C 67.113281 68.738281 67.261719 68.703125 67.375 68.773438 C 67.507812 68.855469 67.648438 68.921875 67.796875 68.972656 C 68.226562 69.117188 68.679688 69.109375 69.101562 68.957031 C 69.230469 68.914062 69.367188 68.976562 69.414062 69.101562 C 69.457031 69.230469 69.390625 69.367188 69.265625 69.414062 C 68.992188 69.511719 68.710938 69.5625 68.429688 69.5625 " fill-opacity="1" fill-rule="nonzero"/><path fill="rgb(0%, 0%, 0%)" d="M 66.21875 67.679688 C 66.101562 67.679688 66 67.597656 65.980469 67.476562 C 65.914062 67.082031 65.945312 66.671875 66.074219 66.289062 C 66.382812 65.359375 67.210938 64.695312 68.183594 64.597656 C 68.316406 64.585938 68.433594 64.683594 68.449219 64.816406 C 68.460938 64.949219 68.363281 65.070312 68.230469 65.082031 C 67.449219 65.160156 66.78125 65.695312 66.53125 66.441406 C 66.429688 66.75 66.402344 67.082031 66.457031 67.398438 C 66.476562 67.53125 66.390625 67.65625 66.257812 67.675781 C 66.242188 67.679688 66.230469 67.679688 66.21875 67.679688 " fill-opacity="1" fill-rule="nonzero"/><path fill="rgb(100%, 0%, 32.159424%)" d="M 91.59375 56.082031 C 91.117188 54.515625 91.199219 53.527344 91.628906 52.496094 L 92.351562 51.054688 L 90.175781 50.179688 L 89.507812 51.820312 C 89.292969 52.351562 88.980469 52.835938 88.589844 53.25 L 88.230469 53.632812 L 91.59375 56.082031 " fill-opacity="1" fill-rule="nonzero"/><path fill="rgb(0%, 0%, 0%)" d="M 88.59375 53.597656 L 91.183594 55.484375 C 90.917969 54.308594 90.988281 53.402344 91.40625 52.402344 C 91.40625 52.398438 91.410156 52.394531 91.414062 52.386719 L 92.019531 51.179688 L 90.308594 50.492188 L 89.730469 51.914062 C 89.503906 52.472656 89.179688 52.976562 88.765625 53.417969 Z M 91.59375 56.328125 C 91.542969 56.328125 91.492188 56.3125 91.449219 56.28125 L 88.085938 53.828125 C 88.03125 53.789062 87.996094 53.722656 87.988281 53.65625 C 87.980469 53.585938 88.003906 53.515625 88.054688 53.464844 L 88.414062 53.085938 C 88.785156 52.6875 89.078125 52.234375 89.28125 51.730469 L 89.949219 50.085938 C 90 49.964844 90.140625 49.902344 90.265625 49.953125 L 92.445312 50.828125 C 92.507812 50.855469 92.554688 50.90625 92.578125 50.96875 C 92.605469 51.03125 92.597656 51.101562 92.570312 51.164062 L 91.847656 52.597656 C 91.480469 53.480469 91.335938 54.402344 91.824219 56.011719 C 91.855469 56.113281 91.816406 56.222656 91.734375 56.28125 C 91.691406 56.3125 91.640625 56.328125 91.59375 56.328125 " fill-opacity="1" fill-rule="nonzero"/><path fill="rgb(32.939148%, 47.44873%, 96.859741%)" d="M 89.214844 52.832031 C 89.160156 52.660156 88.9375 52.621094 88.816406 52.75 C 88.472656 53.117188 87.867188 53.730469 87.410156 54.046875 C 86.984375 54.34375 86.851562 54.914062 87.089844 55.371094 C 87.773438 56.660156 89.503906 59.460938 91.328125 61.597656 C 91.453125 61.742188 91.761719 61.9375 92.210938 61.738281 C 93.707031 61.0625 92.285156 58.011719 91.46875 54.832031 C 91.4375 54.707031 91.335938 54.613281 91.210938 54.589844 L 90.757812 54.503906 C 89.921875 54.339844 89.570312 53.945312 89.214844 52.832031 " fill-opacity="1" fill-rule="nonzero"/><path fill="rgb(100%, 0%, 32.159424%)" d="M 87.511719 53.976562 C 87.511719 53.976562 87.441406 54.023438 87.410156 54.046875 C 86.984375 54.34375 86.851562 54.914062 87.089844 55.371094 C 87.773438 56.660156 89.503906 59.460938 91.328125 61.597656 C 91.453125 61.742188 91.761719 61.9375 92.210938 61.738281 C 92.347656 61.675781 92.550781 61.507812 92.550781 61.507812 L 92.429688 61.351562 C 90.683594 59.125 89.101562 56.769531 87.703125 54.3125 L 87.511719 53.976562 " fill-opacity="1" fill-rule="nonzero"/><path fill="rgb(0%, 0%, 0%)" d="M 87.4375 54.339844 C 87.203125 54.574219 87.140625 54.949219 87.304688 55.257812 C 88.007812 56.585938 89.710938 59.328125 91.511719 61.4375 C 91.546875 61.480469 91.746094 61.679688 92.109375 61.515625 C 92.136719 61.503906 92.171875 61.484375 92.207031 61.460938 C 90.472656 59.242188 88.886719 56.878906 87.492188 54.433594 Z M 91.839844 62.066406 C 91.53125 62.066406 91.285156 61.917969 91.144531 61.753906 C 89.316406 59.613281 87.59375 56.832031 86.878906 55.484375 C 86.578125 54.914062 86.746094 54.210938 87.273438 53.847656 L 87.375 53.777344 C 87.433594 53.738281 87.5 53.726562 87.566406 53.742188 C 87.632812 53.757812 87.6875 53.800781 87.722656 53.859375 L 87.914062 54.191406 C 89.304688 56.632812 90.886719 58.992188 92.621094 61.203125 L 92.742188 61.359375 C 92.824219 61.460938 92.808594 61.613281 92.707031 61.695312 C 92.683594 61.714844 92.46875 61.886719 92.308594 61.957031 C 92.140625 62.035156 91.984375 62.066406 91.839844 62.066406 " fill-opacity="1" fill-rule="nonzero"/><path fill="rgb(100%, 100%, 100%)" d="M 92.089844 57.449219 C 92.078125 57.449219 92.066406 57.449219 92.050781 57.445312 L 90.550781 57.195312 C 90.417969 57.171875 90.328125 57.046875 90.351562 56.914062 C 90.371094 56.785156 90.5 56.695312 90.628906 56.714844 L 92.132812 56.96875 C 92.261719 56.992188 92.351562 57.117188 92.328125 57.246094 C 92.308594 57.367188 92.207031 57.449219 92.089844 57.449219 " fill-opacity="1" fill-rule="nonzero"/><path fill="rgb(100%, 100%, 100%)" d="M 92.335938 58.308594 C 92.324219 58.308594 92.3125 58.304688 92.296875 58.304688 L 91.070312 58.121094 C 90.941406 58.101562 90.847656 57.980469 90.867188 57.847656 C 90.886719 57.714844 91.011719 57.625 91.144531 57.644531 L 92.371094 57.824219 C 92.503906 57.84375 92.59375 57.96875 92.574219 58.101562 C 92.554688 58.222656 92.453125 58.308594 92.335938 58.308594 " fill-opacity="1" fill-rule="nonzero"/><path fill="rgb(100%, 0%, 32.159424%)" d="M 79.320312 33.328125 C 79.320312 33.328125 94.4375 30.007812 99.046875 32.636719 C 99.738281 33.03125 100.398438 33.863281 100.542969 34.648438 C 100.988281 37.042969 99.65625 42.265625 92.371094 52.078125 C 92.265625 52.21875 92.085938 52.269531 91.921875 52.210938 L 89.613281 51.332031 C 89.425781 51.261719 89.324219 51.058594 89.378906 50.863281 L 92.464844 40.050781 C 92.542969 39.769531 92.3125 39.496094 92.019531 39.53125 L 77.613281 41.304688 L 79.320312 33.328125 " fill-opacity="1" fill-rule="nonzero"/><path fill="rgb(0%, 0%, 0%)" d="M 92.070312 39.289062 C 92.261719 39.289062 92.441406 39.371094 92.566406 39.515625 C 92.707031 39.683594 92.753906 39.90625 92.695312 40.117188 L 89.609375 50.929688 C 89.589844 51.003906 89.628906 51.078125 89.699219 51.105469 L 92.007812 51.984375 C 92.070312 52.007812 92.136719 51.984375 92.175781 51.933594 C 100.058594 41.316406 100.652344 36.574219 100.304688 34.695312 C 100.179688 34.007812 99.597656 33.230469 98.925781 32.847656 C 94.695312 30.433594 81.117188 33.195312 79.523438 33.53125 L 77.921875 41.023438 L 91.992188 39.292969 C 92.019531 39.289062 92.042969 39.289062 92.070312 39.289062 Z M 92.058594 52.476562 C 91.984375 52.476562 91.910156 52.464844 91.835938 52.4375 L 89.527344 51.558594 C 89.222656 51.445312 89.054688 51.109375 89.144531 50.796875 L 92.230469 39.984375 C 92.253906 39.90625 92.214844 39.851562 92.195312 39.832031 C 92.179688 39.808594 92.132812 39.761719 92.050781 39.773438 L 77.640625 41.546875 C 77.5625 41.554688 77.488281 41.527344 77.433594 41.46875 C 77.382812 41.410156 77.359375 41.332031 77.375 41.253906 L 79.082031 33.277344 C 79.101562 33.183594 79.175781 33.113281 79.265625 33.09375 C 79.886719 32.957031 94.53125 29.78125 99.164062 32.425781 C 99.964844 32.882812 100.628906 33.777344 100.78125 34.605469 C 101.144531 36.5625 100.558594 41.457031 92.566406 52.222656 C 92.445312 52.386719 92.253906 52.476562 92.058594 52.476562 " fill-opacity="1" fill-rule="nonzero"/><path fill="rgb(100%, 0%, 32.159424%)" d="M 83.785156 61.839844 L 84.078125 63.25 C 84.476562 65.304688 82.976562 66.355469 82.976562 66.355469 L 87.40625 66.894531 C 87.40625 66.894531 86.4375 66.304688 86.636719 63.453125 L 86.890625 61.070312 L 83.785156 61.839844 " fill-opacity="1" fill-rule="nonzero"/><path fill="rgb(0%, 0%, 0%)" d="M 83.527344 66.175781 L 86.839844 66.578125 C 86.5625 66.078125 86.277344 65.140625 86.394531 63.4375 L 86.613281 61.386719 L 84.066406 62.019531 L 84.316406 63.203125 C 84.601562 64.6875 83.976562 65.679688 83.527344 66.175781 Z M 87.40625 67.136719 C 87.394531 67.136719 87.386719 67.136719 87.375 67.132812 L 82.949219 66.59375 C 82.851562 66.582031 82.769531 66.507812 82.746094 66.414062 C 82.71875 66.316406 82.757812 66.210938 82.839844 66.15625 C 82.894531 66.117188 84.203125 65.164062 83.84375 63.296875 L 83.546875 61.890625 C 83.519531 61.765625 83.597656 61.636719 83.726562 61.605469 L 86.832031 60.835938 C 86.90625 60.816406 86.988281 60.835938 87.046875 60.886719 C 87.109375 60.9375 87.136719 61.015625 87.128906 61.09375 L 86.875 63.480469 C 86.695312 66.089844 87.527344 66.683594 87.535156 66.6875 C 87.628906 66.753906 87.667969 66.871094 87.628906 66.976562 C 87.59375 67.070312 87.503906 67.136719 87.40625 67.136719 " fill-opacity="1" fill-rule="nonzero"/><path fill="rgb(32.939148%, 47.44873%, 96.859741%)" d="M 83.691406 64.457031 C 83.328125 64.878906 82.664062 65.667969 82.15625 66.433594 C 81.839844 66.910156 82.03125 67.464844 82.371094 67.925781 C 83.066406 68.863281 84.023438 69.585938 85.148438 70.328125 C 86.128906 70.976562 87.226562 71.660156 88.546875 72.265625 C 88.90625 72.429688 89.714844 72.65625 90.257812 72.386719 C 91.886719 71.570312 89.167969 69.015625 87.027344 66.074219 C 86.941406 65.960938 86.800781 65.902344 86.660156 65.929688 L 86.160156 66.03125 C 85.65625 66.128906 85.144531 65.917969 84.863281 65.496094 L 84.1875 64.484375 C 84.074219 64.3125 83.828125 64.300781 83.691406 64.457031 " fill-opacity="1" fill-rule="nonzero"/><path fill="rgb(100%, 0%, 32.159424%)" d="M 82.421875 66.078125 C 82.421875 66.078125 82.183594 66.394531 82.15625 66.433594 C 82.078125 66.550781 82.03125 66.691406 82.003906 66.835938 C 81.921875 67.296875 82.082031 67.769531 82.40625 68.109375 C 82.484375 68.191406 82.589844 68.296875 82.714844 68.414062 C 84 69.640625 85.441406 70.683594 87 71.535156 C 87.789062 71.964844 89.539062 72.855469 90.257812 72.386719 C 90.476562 72.242188 90.613281 71.800781 90.613281 71.800781 C 90.613281 71.800781 90.195312 72.050781 88.933594 71.425781 C 86.804688 70.363281 85.367188 69.175781 83.609375 67.753906 C 83.261719 67.476562 83.023438 67.21875 82.777344 66.914062 C 82.585938 66.675781 82.460938 66.382812 82.421875 66.078125 " fill-opacity="1" fill-rule="nonzero"/><path fill="rgb(0%, 0%, 0%)" d="M 82.324219 66.625 C 82.289062 66.695312 82.261719 66.78125 82.242188 66.878906 C 82.175781 67.253906 82.300781 67.652344 82.582031 67.945312 C 82.65625 68.023438 82.757812 68.125 82.878906 68.238281 C 84.132812 69.433594 85.554688 70.46875 87.113281 71.320312 C 89.242188 72.484375 89.925781 72.3125 90.125 72.183594 C 90.152344 72.164062 90.183594 72.128906 90.210938 72.085938 C 89.910156 72.066406 89.460938 71.957031 88.828125 71.640625 C 86.742188 70.605469 85.296875 69.433594 83.625 68.082031 L 83.457031 67.945312 C 83.132812 67.683594 82.882812 67.425781 82.589844 67.066406 C 82.480469 66.933594 82.390625 66.78125 82.324219 66.625 Z M 89.722656 72.757812 C 89.0625 72.757812 88.113281 72.421875 86.882812 71.746094 C 85.285156 70.875 83.828125 69.8125 82.546875 68.589844 C 82.417969 68.46875 82.308594 68.363281 82.230469 68.277344 C 81.84375 67.875 81.671875 67.320312 81.765625 66.792969 C 81.800781 66.601562 81.863281 66.433594 81.957031 66.296875 C 81.980469 66.257812 82.15625 66.027344 82.226562 65.929688 C 82.285156 65.851562 82.386719 65.816406 82.480469 65.84375 C 82.578125 65.867188 82.648438 65.949219 82.660156 66.046875 C 82.695312 66.308594 82.800781 66.554688 82.96875 66.761719 C 83.234375 67.09375 83.464844 67.328125 83.761719 67.566406 L 83.929688 67.703125 C 85.582031 69.039062 87.007812 70.195312 89.042969 71.207031 C 90.113281 71.742188 90.496094 71.585938 90.5 71.585938 C 90.585938 71.53125 90.6875 71.542969 90.769531 71.605469 C 90.847656 71.667969 90.871094 71.773438 90.84375 71.871094 C 90.816406 71.957031 90.667969 72.40625 90.386719 72.585938 C 90.214844 72.699219 89.992188 72.757812 89.722656 72.757812 " fill-opacity="1" fill-rule="nonzero"/><path fill="rgb(100%, 100%, 100%)" d="M 86.625 68.363281 C 86.515625 68.363281 86.414062 68.289062 86.390625 68.175781 C 86.363281 68.042969 86.445312 67.914062 86.574219 67.886719 L 88.226562 67.527344 C 88.359375 67.5 88.488281 67.582031 88.515625 67.714844 C 88.542969 67.84375 88.460938 67.972656 88.328125 68.003906 L 86.679688 68.359375 C 86.660156 68.363281 86.644531 68.363281 86.625 68.363281 " fill-opacity="1" fill-rule="nonzero"/><path fill="rgb(100%, 100%, 100%)" d="M 87.539062 69.109375 C 87.429688 69.109375 87.332031 69.03125 87.304688 68.921875 C 87.273438 68.789062 87.355469 68.660156 87.484375 68.628906 L 88.824219 68.3125 C 88.957031 68.28125 89.085938 68.363281 89.117188 68.492188 C 89.144531 68.625 89.066406 68.753906 88.9375 68.785156 L 87.597656 69.101562 C 87.578125 69.105469 87.558594 69.109375 87.539062 69.109375 " fill-opacity="1" fill-rule="nonzero"/><path fill="rgb(100%, 0%, 32.159424%)" d="M 89.101562 37.65625 C 84.695312 33.886719 70.519531 33.765625 70.519531 33.765625 C 70.519531 33.765625 68.75 35.878906 69.597656 40.132812 C 69.875 41.535156 70.863281 42.792969 72.429688 42.792969 L 81.125 42.867188 C 81.761719 42.875 82.269531 43.40625 82.246094 44.042969 C 82.082031 48.253906 81.9375 56.957031 83.140625 62.886719 C 83.1875 63.128906 83.371094 63.316406 83.605469 63.382812 C 84.160156 63.535156 85.25 63.777344 86.429688 63.761719 C 86.800781 63.757812 87.105469 63.476562 87.15625 63.113281 L 90.039062 41.546875 C 90.128906 40.894531 90.128906 40.234375 90.019531 39.589844 C 89.902344 38.898438 89.648438 38.125 89.101562 37.65625 " fill-opacity="1" fill-rule="nonzero"/><path fill="rgb(0%, 0%, 0%)" d="M 70.640625 34.011719 C 70.339844 34.445312 69.117188 36.480469 69.832031 40.085938 C 70.058594 41.222656 70.875 42.550781 72.429688 42.550781 L 81.128906 42.625 C 81.503906 42.628906 81.851562 42.777344 82.109375 43.050781 C 82.367188 43.320312 82.5 43.675781 82.488281 44.050781 C 82.3125 48.570312 82.199219 57.015625 83.378906 62.835938 C 83.410156 62.988281 83.519531 63.109375 83.667969 63.148438 C 84.203125 63.292969 85.28125 63.535156 86.425781 63.519531 C 86.671875 63.515625 86.882812 63.328125 86.914062 63.082031 L 89.800781 41.511719 C 89.886719 40.859375 89.882812 40.222656 89.78125 39.628906 C 89.644531 38.8125 89.355469 38.191406 88.945312 37.839844 C 84.871094 34.351562 72.035156 34.035156 70.640625 34.011719 Z M 86.320312 64.003906 C 85.152344 64.003906 84.085938 63.761719 83.542969 63.617188 C 83.214844 63.527344 82.972656 63.265625 82.902344 62.933594 C 81.714844 57.0625 81.828125 48.570312 82.003906 44.03125 C 82.011719 43.789062 81.925781 43.558594 81.757812 43.386719 C 81.589844 43.210938 81.367188 43.113281 81.125 43.109375 L 72.425781 43.035156 C 70.582031 43.035156 69.621094 41.496094 69.359375 40.179688 C 68.5 35.863281 70.261719 33.699219 70.335938 33.609375 C 70.382812 33.554688 70.445312 33.527344 70.523438 33.523438 C 71.105469 33.527344 84.835938 33.6875 89.257812 37.472656 C 89.765625 37.90625 90.101562 38.605469 90.257812 39.546875 C 90.367188 40.191406 90.375 40.875 90.28125 41.578125 L 87.394531 63.144531 C 87.332031 63.628906 86.917969 63.996094 86.433594 64.003906 C 86.394531 64.003906 86.355469 64.003906 86.320312 64.003906 " fill-opacity="1" fill-rule="nonzero"/><path fill="rgb(100%, 0%, 32.159424%)" d="M 86.101562 23.800781 L 87.269531 26.042969 C 88.402344 28.082031 90.222656 29.433594 92.234375 30.601562 L 93.054688 31.078125 C 93.578125 31.382812 94.1875 31.503906 94.785156 31.421875 L 94.878906 31.410156 C 95.792969 31.289062 96.722656 31.507812 97.488281 32.023438 L 95.460938 32.804688 C 94.21875 33.28125 92.84375 33.261719 91.628906 32.726562 C 90.464844 32.214844 87.84375 31.585938 86.605469 30.144531 C 84.015625 27.125 84.117188 26.453125 84.117188 26.453125 L 86.101562 23.800781 " fill-opacity="1" fill-rule="nonzero"/><path fill="rgb(0%, 0%, 0%)" d="M 84.367188 26.519531 C 84.421875 26.738281 84.753906 27.613281 86.789062 29.988281 C 87.691406 31.039062 89.414062 31.65625 90.675781 32.105469 C 91.085938 32.253906 91.441406 32.378906 91.722656 32.503906 C 92.878906 33.011719 94.175781 33.039062 95.371094 32.578125 L 96.929688 31.980469 C 96.308594 31.675781 95.605469 31.558594 94.910156 31.652344 L 94.816406 31.664062 C 94.167969 31.75 93.5 31.617188 92.929688 31.285156 L 92.113281 30.8125 C 90.308594 29.765625 88.296875 28.390625 87.054688 26.160156 L 86.066406 24.253906 Z M 93.628906 33.390625 C 92.910156 33.390625 92.199219 33.242188 91.53125 32.949219 C 91.261719 32.828125 90.914062 32.707031 90.511719 32.5625 C 89.203125 32.09375 87.40625 31.449219 86.421875 30.304688 C 83.953125 27.421875 83.851562 26.601562 83.878906 26.414062 C 83.882812 26.375 83.898438 26.339844 83.921875 26.308594 L 85.90625 23.65625 C 85.957031 23.589844 86.039062 23.554688 86.121094 23.558594 C 86.203125 23.566406 86.277344 23.617188 86.316406 23.691406 L 87.484375 25.929688 C 88.660156 28.054688 90.609375 29.378906 92.355469 30.394531 L 93.171875 30.867188 C 93.648438 31.144531 94.210938 31.253906 94.753906 31.183594 L 94.847656 31.171875 C 95.820312 31.039062 96.808594 31.273438 97.625 31.824219 C 97.699219 31.875 97.738281 31.964844 97.730469 32.054688 C 97.71875 32.140625 97.660156 32.21875 97.578125 32.25 L 95.546875 33.03125 C 94.921875 33.269531 94.273438 33.390625 93.628906 33.390625 " fill-opacity="1" fill-rule="nonzero"/><path fill="rgb(32.939148%, 47.44873%, 96.859741%)" d="M 80.195312 34.621094 C 80.195312 34.621094 80.34375 34.921875 76.410156 35.492188 C 73.574219 35.902344 71.003906 35.71875 69.785156 35.585938 C 69.390625 35.542969 69.121094 35.160156 69.21875 34.773438 C 69.539062 33.496094 69.769531 32.308594 71 29.066406 C 71.851562 26.816406 70.558594 22.707031 73.203125 20.265625 C 77.671875 16.148438 83.832031 21.402344 83.832031 21.402344 L 85.769531 24.253906 C 83.550781 26.863281 81.804688 29.839844 80.617188 33.054688 L 80.195312 34.621094 " fill-opacity="1" fill-rule="nonzero"/><path fill="rgb(100%, 100%, 100%)" d="M 78.539062 26.851562 C 78.417969 26.851562 78.3125 26.757812 78.300781 26.636719 L 77.96875 23.535156 C 77.953125 23.402344 78.050781 23.28125 78.183594 23.265625 C 78.3125 23.253906 78.433594 23.347656 78.449219 23.480469 L 78.78125 26.585938 C 78.792969 26.714844 78.699219 26.835938 78.566406 26.851562 C 78.558594 26.851562 78.546875 26.851562 78.539062 26.851562 " fill-opacity="1" fill-rule="nonzero"/><path fill="rgb(100%, 100%, 100%)" d="M 74.445312 28.558594 C 74.355469 28.558594 74.273438 28.511719 74.230469 28.425781 C 73.542969 27.117188 72.585938 23.476562 72.5625 22.609375 C 72.558594 22.476562 72.664062 22.363281 72.796875 22.359375 C 72.9375 22.355469 73.042969 22.464844 73.046875 22.597656 C 73.0625 23.324219 73.972656 26.890625 74.65625 28.203125 C 74.71875 28.320312 74.671875 28.46875 74.554688 28.527344 C 74.519531 28.546875 74.480469 28.558594 74.445312 28.558594 " fill-opacity="1" fill-rule="nonzero"/><path fill="rgb(0%, 0%, 0%)" d="M 99.480469 32.308594 L 88.984375 33.109375 L 94.75 22.667969 C 94.964844 22.273438 95.371094 22.015625 95.828125 21.980469 L 104.347656 21.332031 C 104.890625 21.289062 105.261719 21.84375 105.007812 22.3125 L 99.480469 32.308594 " fill-opacity="1" fill-rule="nonzero"/><path fill="rgb(100%, 0%, 32.159424%)" d="M 98.117188 27.378906 C 97.910156 27.757812 97.433594 28.085938 97.046875 28.117188 C 96.664062 28.144531 96.515625 27.863281 96.722656 27.488281 C 96.929688 27.109375 97.40625 26.78125 97.792969 26.753906 C 98.175781 26.722656 98.320312 27.003906 98.117188 27.378906 " fill-opacity="1" fill-rule="nonzero"/><path fill="rgb(0%, 0%, 0%)" d="M 98.96875 32.988281 L 82.5 34.242188 C 82.160156 34.269531 81.863281 34.011719 81.839844 33.671875 L 81.8125 33.578125 L 99.511719 32.230469 L 99.539062 32.324219 C 99.566406 32.664062 99.308594 32.960938 98.96875 32.988281 " fill-opacity="1" fill-rule="nonzero"/><path fill="rgb(100%, 0%, 32.159424%)" d="M 90.566406 31.085938 L 88.421875 30.34375 C 88.105469 30.230469 87.75 30.296875 87.492188 30.511719 L 86.496094 31.335938 C 86.304688 31.492188 86.0625 31.570312 85.816406 31.550781 C 84.746094 31.480469 79.75 30.113281 79.367188 29.207031 C 79.042969 28.441406 78.792969 27.523438 78.792969 27.523438 L 74.917969 28.882812 C 74.917969 28.882812 74.980469 30.082031 76.554688 31.691406 C 77.894531 33.0625 81.355469 33.519531 86.113281 33.234375 C 86.113281 33.234375 87.109375 33.121094 87.941406 32.125 C 88.472656 31.488281 89.773438 31.816406 90.539062 31.625 C 90.8125 31.558594 90.832031 31.175781 90.566406 31.085938 " fill-opacity="1" fill-rule="nonzero"/><path fill="rgb(0%, 0%, 0%)" d="M 75.1875 29.042969 C 75.273438 29.417969 75.585938 30.355469 76.726562 31.519531 C 77.960938 32.78125 81.199219 33.289062 86.097656 32.992188 C 86.09375 32.992188 87 32.871094 87.757812 31.96875 C 88.171875 31.46875 88.929688 31.460938 89.59375 31.457031 C 89.925781 31.453125 90.242188 31.449219 90.484375 31.390625 C 90.492188 31.386719 90.511719 31.382812 90.515625 31.351562 C 90.515625 31.324219 90.496094 31.316406 90.488281 31.3125 L 88.34375 30.570312 C 88.105469 30.488281 87.839844 30.535156 87.644531 30.695312 L 86.652344 31.519531 C 86.414062 31.71875 86.113281 31.816406 85.800781 31.792969 C 84.773438 31.726562 79.601562 30.382812 79.144531 29.296875 C 78.917969 28.765625 78.730469 28.167969 78.628906 27.839844 Z M 83.523438 33.558594 C 79.882812 33.558594 77.488281 32.988281 76.382812 31.859375 C 74.761719 30.203125 74.675781 28.949219 74.675781 28.894531 C 74.667969 28.785156 74.734375 28.6875 74.835938 28.652344 L 78.710938 27.296875 C 78.773438 27.273438 78.84375 27.28125 78.902344 27.3125 C 78.964844 27.34375 79.007812 27.394531 79.023438 27.460938 C 79.027344 27.46875 79.277344 28.371094 79.589844 29.109375 C 79.882812 29.808594 84.589844 31.230469 85.835938 31.3125 C 86.023438 31.324219 86.199219 31.265625 86.34375 31.148438 L 87.335938 30.324219 C 87.660156 30.058594 88.105469 29.976562 88.5 30.113281 L 90.644531 30.855469 C 90.867188 30.933594 91.007812 31.140625 90.996094 31.375 C 90.988281 31.609375 90.828125 31.804688 90.597656 31.863281 C 90.300781 31.933594 89.960938 31.9375 89.597656 31.941406 C 89.007812 31.945312 88.402344 31.953125 88.125 32.28125 C 87.242188 33.339844 86.183594 33.46875 86.140625 33.472656 C 85.207031 33.53125 84.335938 33.558594 83.523438 33.558594 " fill-opacity="1" fill-rule="nonzero"/><path fill="rgb(32.939148%, 47.44873%, 96.859741%)" d="M 83.296875 21.121094 C 85.945312 22.539062 87.015625 24.621094 88.402344 26.484375 C 87.425781 27.367188 86.261719 28.566406 85.503906 29.417969 C 84.792969 28.871094 83.890625 28.3125 83.234375 27.523438 L 83.296875 21.121094 " fill-opacity="1" fill-rule="nonzero"/><path fill="rgb(100%, 0%, 32.159424%)" d="M 80.007812 15.957031 L 80 18.863281 C 80.019531 19.242188 80.265625 19.570312 80.625 19.691406 L 81.175781 19.929688 C 81.320312 19.992188 80.808594 20.765625 78.539062 20.417969 C 77.664062 20.28125 76.835938 19.945312 76.109375 19.4375 L 75.578125 19.070312 C 75.945312 19.015625 76.953125 18.746094 77.046875 18.382812 L 77.882812 14.605469 L 80.007812 15.957031 " fill-opacity="1" fill-rule="nonzero"/><path fill="rgb(0%, 0%, 0%)" d="M 76.164062 19.179688 L 76.246094 19.238281 C 76.945312 19.726562 77.75 20.050781 78.574219 20.175781 C 79.875 20.375 80.539062 20.191406 80.816406 20.039062 L 80.539062 19.917969 C 80.085938 19.761719 79.78125 19.351562 79.757812 18.871094 L 79.765625 16.089844 L 78.046875 14.996094 L 77.28125 18.4375 C 77.183594 18.816406 76.613281 19.050781 76.164062 19.179688 Z M 79.601562 20.746094 C 79.28125 20.746094 78.914062 20.71875 78.5 20.65625 C 77.605469 20.519531 76.730469 20.164062 75.972656 19.636719 L 75.4375 19.265625 C 75.359375 19.210938 75.320312 19.109375 75.34375 19.011719 C 75.363281 18.914062 75.445312 18.84375 75.542969 18.828125 C 76.074219 18.75 76.761719 18.476562 76.8125 18.324219 L 77.648438 14.550781 C 77.664062 14.472656 77.71875 14.410156 77.792969 14.378906 C 77.863281 14.351562 77.949219 14.359375 78.015625 14.398438 L 80.136719 15.753906 C 80.207031 15.796875 80.25 15.875 80.25 15.957031 L 80.242188 18.859375 C 80.257812 19.132812 80.4375 19.371094 80.703125 19.460938 C 80.707031 19.464844 80.714844 19.46875 80.71875 19.46875 L 81.273438 19.707031 C 81.40625 19.765625 81.46875 19.910156 81.429688 20.058594 C 81.335938 20.375 80.777344 20.746094 79.601562 20.746094 " fill-opacity="1" fill-rule="nonzero"/><path fill="rgb(0%, 0%, 0%)" d="M 83.871094 12.6875 C 83.242188 12.210938 83.613281 13.433594 81.667969 11.113281 C 80.894531 10.191406 80.628906 11.640625 80.429688 11.402344 C 79.683594 10.519531 79.710938 10.550781 79.179688 10.367188 C 78.828125 10.246094 78.265625 10.667969 78.050781 11.117188 C 77.761719 11.707031 78.113281 12.148438 77.742188 13.558594 C 77.484375 14.550781 77.089844 14.992188 77.332031 15.328125 C 77.578125 15.664062 78.113281 15.382812 78.410156 15.734375 C 78.796875 16.179688 78.152344 16.9375 78.386719 17.585938 C 78.535156 17.996094 79.144531 18.546875 80.582031 18.742188 C 80.8125 18.773438 81.039062 18.632812 81.113281 18.410156 C 81.207031 18.121094 81.324219 17.757812 81.410156 17.402344 C 81.8125 15.703125 81.535156 15.074219 81.945312 14.839844 C 82.574219 14.476562 83.390625 15.46875 83.855469 15.136719 C 84.339844 14.792969 84.730469 13.332031 83.871094 12.6875 " fill-opacity="1" fill-rule="nonzero"/><path fill="rgb(100%, 0%, 32.159424%)" d="M 80.300781 13.101562 L 80.253906 13.578125 C 80.234375 13.800781 80.195312 14.023438 80.144531 14.242188 C 80.046875 14.652344 79.882812 15.355469 79.820312 15.757812 C 79.730469 16.347656 81.53125 16.757812 81.53125 16.757812 L 81.804688 16.535156 L 82.015625 16.578125 C 82.058594 16.585938 82.101562 16.585938 82.140625 16.574219 C 82.238281 16.539062 82.300781 16.449219 82.300781 16.351562 C 82.296875 15.816406 82.332031 14.640625 82.640625 13.773438 C 82.640625 13.773438 81.757812 12.789062 80.300781 13.101562 " fill-opacity="1" fill-rule="nonzero"/><path fill="rgb(0%, 0%, 0%)" d="M 80.523438 13.308594 L 80.496094 13.601562 C 80.472656 13.835938 80.433594 14.070312 80.378906 14.296875 C 80.285156 14.6875 80.121094 15.398438 80.058594 15.796875 C 80.035156 15.953125 80.652344 16.289062 81.472656 16.492188 L 81.652344 16.347656 C 81.707031 16.300781 81.78125 16.28125 81.851562 16.296875 L 82.0625 16.339844 C 82.054688 15.769531 82.09375 14.703125 82.363281 13.839844 C 82.128906 13.632812 81.480469 13.167969 80.523438 13.308594 Z M 81.53125 16.996094 C 81.515625 16.996094 81.496094 16.996094 81.476562 16.992188 C 81.003906 16.882812 79.464844 16.476562 79.582031 15.722656 C 79.644531 15.308594 79.8125 14.582031 79.90625 14.183594 C 79.957031 13.980469 79.992188 13.765625 80.015625 13.554688 L 80.058594 13.082031 C 80.070312 12.976562 80.148438 12.890625 80.25 12.867188 C 81.828125 12.523438 82.78125 13.566406 82.820312 13.613281 C 82.878906 13.679688 82.898438 13.769531 82.867188 13.855469 C 82.566406 14.699219 82.539062 15.878906 82.542969 16.347656 C 82.542969 16.554688 82.414062 16.738281 82.214844 16.804688 C 82.140625 16.828125 82.054688 16.832031 81.96875 16.816406 L 81.867188 16.796875 L 81.683594 16.945312 C 81.640625 16.980469 81.585938 16.996094 81.53125 16.996094 " fill-opacity="1" fill-rule="nonzero"/><path fill="rgb(100%, 0%, 32.159424%)" d="M 79.75 14.5 C 79.75 14.5 79.863281 13.359375 79.335938 13.421875 C 78.808594 13.480469 78.714844 14.742188 79.75 14.5 " fill-opacity="1" fill-rule="nonzero"/><path fill="rgb(0%, 0%, 0%)" d="M 120.0625 71.402344 C 121.023438 71.152344 121.996094 71.175781 122.984375 71.703125 C 123.777344 72.417969 123.492188 73.207031 122.867188 73.152344 C 121.878906 72.433594 120.914062 72.367188 119.972656 72.753906 L 120.0625 71.402344 " fill-opacity="1" fill-rule="nonzero"/><path fill="rgb(0%, 0%, 0%)" d="M 119.941406 78.4375 C 120.90625 78.1875 121.878906 78.210938 122.867188 78.738281 C 123.65625 79.453125 123.371094 80.246094 122.746094 80.1875 C 121.757812 79.46875 120.796875 79.402344 119.851562 79.789062 L 119.941406 78.4375 " fill-opacity="1" fill-rule="nonzero"/><path fill="rgb(0%, 0%, 0%)" d="M 109.53125 69.3125 C 108.769531 68.671875 107.882812 68.277344 106.761719 68.324219 C 105.742188 68.632812 105.660156 69.46875 106.246094 69.683594 C 107.449219 69.460938 108.347656 69.816406 109.035156 70.570312 L 109.53125 69.3125 " fill-opacity="1" fill-rule="nonzero"/><path fill="rgb(0%, 0%, 0%)" d="M 106.617188 75.71875 C 105.855469 75.078125 104.96875 74.679688 103.847656 74.730469 C 102.828125 75.035156 102.746094 75.871094 103.332031 76.085938 C 104.535156 75.863281 105.433594 76.21875 106.117188 76.976562 L 106.617188 75.71875 " fill-opacity="1" fill-rule="nonzero"/><path fill="rgb(32.939148%, 47.44873%, 96.859741%)" d="M 120.296875 76.757812 C 118.851562 83.171875 114.746094 87.710938 111.132812 86.894531 C 107.519531 86.078125 105.765625 80.210938 107.214844 73.792969 C 108.660156 67.378906 112.597656 65.007812 116.210938 65.824219 C 119.824219 66.644531 121.746094 70.339844 120.296875 76.757812 " fill-opacity="1" fill-rule="nonzero"/><path fill="rgb(0%, 0%, 0%)" d="M 120.296875 76.757812 C 118.851562 83.171875 114.746094 87.710938 111.132812 86.894531 C 107.519531 86.078125 105.765625 80.210938 107.214844 73.792969 C 108.660156 67.378906 112.597656 65.007812 116.210938 65.824219 C 119.824219 66.644531 121.746094 70.339844 120.296875 76.757812 " fill-opacity="1" fill-rule="nonzero"/><path fill="rgb(100%, 0%, 32.159424%)" d="M 109.636719 68.640625 C 111.84375 67.84375 114.070312 67.707031 116.328125 68.445312 C 113.910156 74.84375 112.601562 83.5625 108.4375 86.316406 C 108.160156 86.5 107.785156 86.351562 107.71875 86.027344 C 106.503906 79.882812 106.632812 73.988281 109.636719 68.640625 " fill-opacity="1" fill-rule="nonzero"/><path fill="rgb(100%, 0%, 32.159424%)" d="M 119.855469 70.679688 C 118.136719 69.082031 116.136719 68.085938 113.769531 67.882812 C 113.5 74.714844 111.300781 83.253906 114.058594 87.421875 C 114.242188 87.695312 114.648438 87.710938 114.832031 87.433594 C 118.347656 82.253906 120.53125 76.78125 119.855469 70.679688 " fill-opacity="1" fill-rule="nonzero"/><path fill="rgb(32.939148%, 47.44873%, 96.859741%)" d="M 109.761719 68.21875 C 112.074219 67.84375 114.289062 68.121094 116.371094 69.261719 C 112.816406 75.101562 109.925781 83.433594 105.324219 85.371094 C 105.019531 85.5 104.675781 85.289062 104.671875 84.953125 C 104.613281 78.691406 105.820312 72.921875 109.761719 68.21875 " fill-opacity="1" fill-rule="nonzero"/><path fill="rgb(32.939148%, 47.44873%, 96.859741%)" d="M 120.492188 70.625 C 118.503906 69.375 116.355469 68.773438 113.996094 69.015625 C 115.007812 75.78125 114.441406 84.582031 117.929688 88.15625 C 118.160156 88.390625 118.558594 88.328125 118.691406 88.023438 C 121.175781 82.273438 122.296875 76.488281 120.492188 70.625 " fill-opacity="1" fill-rule="nonzero"/><path fill="rgb(0%, 0%, 0%)" d="M 120.675781 71.191406 C 120.253906 68.171875 118.605469 66.367188 116.210938 65.828125 C 113.765625 65.273438 111.175781 66.179688 109.304688 68.8125 C 112.707031 67.65625 118.304688 69.582031 120.675781 71.191406 " fill-opacity="1" fill-rule="nonzero"/><path fill="rgb(0%, 0%, 0%)" d="M 115.113281 66.007812 C 115.078125 66.007812 115.042969 66 115.007812 65.984375 C 114.886719 65.925781 114.835938 65.78125 114.894531 65.660156 C 115.363281 64.660156 115.609375 63.074219 115.09375 61.78125 C 114.800781 61.042969 114.308594 60.53125 113.628906 60.265625 C 112.863281 59.96875 111.929688 60.167969 111.453125 60.738281 C 111.222656 61.015625 111.128906 61.4375 111.230469 61.757812 C 111.308594 61.996094 111.472656 62.148438 111.71875 62.214844 C 111.847656 62.25 111.925781 62.382812 111.890625 62.511719 C 111.855469 62.640625 111.722656 62.71875 111.59375 62.683594 C 111.1875 62.574219 110.894531 62.296875 110.769531 61.902344 C 110.617188 61.425781 110.746094 60.832031 111.082031 60.425781 C 111.695312 59.695312 112.839844 59.4375 113.804688 59.816406 C 114.601562 60.128906 115.203125 60.746094 115.542969 61.601562 C 116.113281 63.027344 115.847656 64.773438 115.332031 65.867188 C 115.289062 65.953125 115.203125 66.007812 115.113281 66.007812 " fill-opacity="1" fill-rule="nonzero"/><path fill="rgb(0%, 0%, 0%)" d="M 117.117188 67.777344 C 117.097656 67.777344 117.078125 67.777344 117.0625 67.769531 C 116.933594 67.742188 116.851562 67.613281 116.878906 67.480469 C 117.175781 66.179688 117.574219 65.058594 118.125 63.953125 C 118.5 63.210938 119.632812 60.949219 121.789062 61.496094 C 122.503906 61.675781 122.984375 62.128906 123.144531 62.773438 C 123.3125 63.457031 123.066406 64.234375 122.539062 64.714844 C 122.0625 65.140625 121.429688 65.253906 120.800781 65.027344 C 120.675781 64.980469 120.613281 64.839844 120.65625 64.714844 C 120.703125 64.589844 120.839844 64.523438 120.964844 64.570312 C 121.429688 64.738281 121.871094 64.660156 122.214844 64.351562 C 122.609375 63.996094 122.796875 63.394531 122.671875 62.886719 C 122.59375 62.5625 122.351562 62.140625 121.667969 61.964844 C 120.457031 61.65625 119.46875 62.359375 118.558594 64.171875 C 118.015625 65.253906 117.644531 66.308594 117.351562 67.589844 C 117.324219 67.703125 117.226562 67.777344 117.117188 67.777344 " fill-opacity="1" fill-rule="nonzero"/></svg>