<svg xmlns="http://www.w3.org/2000/svg" xmlns:xlink="http://www.w3.org/1999/xlink" width="225" zoomAndPan="magnify" viewBox="0 0 168.75 149.999998" height="200" preserveAspectRatio="xMidYMid meet" version="1.0"><defs><clipPath id="id1"><path d="M 9 0.109375 L 160 0.109375 L 160 149.886719 L 9 149.886719 Z M 9 0.109375 " clip-rule="nonzero"/></clipPath><clipPath id="id2"><path d="M 43.363281 42.164062 L 62.152344 42.164062 L 62.152344 109.488281 L 43.363281 109.488281 Z M 43.363281 42.164062 " clip-rule="nonzero"/></clipPath><clipPath id="id3"><path d="M 105.355469 42.164062 L 123.945312 42.164062 L 123.945312 109.488281 L 105.355469 109.488281 Z M 105.355469 42.164062 " clip-rule="nonzero"/></clipPath><clipPath id="id4"><path d="M 55.636719 48.460938 L 83.816406 48.460938 L 83.816406 104.824219 L 55.636719 104.824219 Z M 55.636719 48.460938 " clip-rule="nonzero"/></clipPath><clipPath id="id5"><path d="M 83.429688 48.460938 L 111.546875 48.460938 L 111.546875 104.6875 L 83.429688 104.6875 Z M 83.429688 48.460938 " clip-rule="nonzero"/></clipPath><clipPath id="id6"><path d="M 68.15625 65 L 99.46875 65 L 99.46875 88 L 68.15625 88 Z M 68.15625 65 " clip-rule="nonzero"/></clipPath><clipPath id="id7"><path d="M 95.253906 83.28125 C 95.496094 83.71875 95.988281 83.9375 96.488281 83.933594 C 97.34375 83.929688 98.027344 84.660156 97.953125 85.53125 C 97.886719 86.304688 97.195312 86.875 96.421875 86.875 L 91.617188 86.875 L 91.617188 87.363281 L 71.621094 87.363281 C 70.785156 87.363281 70.113281 86.664062 70.160156 85.816406 C 70.199219 85.019531 70.910156 84.421875 71.703125 84.421875 L 72.109375 84.421875 C 72.699219 84.421875 73.167969 83.890625 73.070312 83.277344 C 72.992188 82.796875 72.542969 82.460938 72.054688 82.460938 L 69.667969 82.460938 C 68.835938 82.460938 68.164062 81.761719 68.207031 80.914062 C 68.25 80.117188 68.960938 79.519531 69.753906 79.519531 L 72.839844 79.519531 C 73.511719 79.519531 74.058594 78.972656 74.058594 78.296875 C 74.058594 77.617188 73.511719 77.070312 72.839844 77.070312 C 72.167969 77.070312 71.621094 76.523438 71.621094 75.84375 C 71.621094 75.167969 72.167969 74.617188 72.839844 74.617188 L 76.984375 74.617188 L 76.984375 71.1875 L 73.328125 71.1875 C 72.355469 71.1875 71.570312 70.367188 71.621094 69.378906 C 71.671875 68.453125 72.5 67.757812 73.425781 67.757812 L 76.984375 67.757812 L 76.984375 65.796875 L 95.765625 65.796875 C 96.738281 65.796875 97.519531 66.613281 97.46875 67.601562 C 97.421875 68.53125 96.589844 69.226562 95.667969 69.226562 L 94.300781 69.226562 C 93.328125 69.226562 92.542969 70.046875 92.597656 71.035156 C 92.644531 71.960938 93.472656 72.65625 94.398438 72.65625 L 95.519531 72.65625 C 96.386719 72.65625 97.078125 73.414062 96.972656 74.308594 C 96.886719 75.046875 96.21875 75.570312 95.476562 75.601562 C 94.894531 75.625 94.441406 76.164062 94.5625 76.78125 C 94.65625 77.242188 95.09375 77.558594 95.5625 77.558594 L 97.714844 77.558594 C 98.6875 77.558594 99.472656 78.378906 99.417969 79.367188 C 99.371094 80.296875 98.542969 80.992188 97.617188 80.992188 L 96.496094 80.992188 C 95.425781 80.992188 94.625 82.144531 95.253906 83.28125 Z M 69.425781 77.070312 C 70.097656 77.070312 70.644531 76.523438 70.644531 75.84375 C 70.644531 75.167969 70.097656 74.617188 69.425781 74.617188 C 68.75 74.617188 68.207031 75.167969 68.207031 75.84375 C 68.207031 76.523438 68.75 77.070312 69.425781 77.070312 Z M 69.425781 77.070312 " clip-rule="nonzero"/></clipPath><radialGradient gradientTransform="matrix(0.997472, 0, 0, -1.002528, 68.206014, -49.851376)" gradientUnits="userSpaceOnUse" xlink:type="simple" r="16.137396" xlink:actuate="onLoad" cx="15.647436" id="id8" cy="-126.112462" xlink:show="other" fx="15.647436" fy="-126.112462"><stop stop-opacity="1" stop-color="rgb(94.299316%, 87.04834%, 71.418762%)" offset="0"/><stop stop-opacity="1" stop-color="rgb(94.915771%, 87.832642%, 73.626709%)" offset="0.00390625"/><stop stop-opacity="1" stop-color="rgb(94.979858%, 87.95166%, 73.959351%)" offset="0.015625"/><stop stop-opacity="1" stop-color="rgb(95.069885%, 88.121033%, 74.249268%)" offset="0.0273438"/><stop stop-opacity="1" stop-color="rgb(95.159912%, 88.291931%, 74.539185%)" offset="0.0390625"/><stop stop-opacity="1" stop-color="rgb(95.249939%, 88.46283%, 74.830627%)" offset="0.0507812"/><stop stop-opacity="1" stop-color="rgb(95.339966%, 88.632202%, 75.120544%)" offset="0.0625"/><stop stop-opacity="1" stop-color="rgb(95.429993%, 88.803101%, 75.410461%)" offset="0.0742188"/><stop stop-opacity="1" stop-color="rgb(95.52002%, 88.972473%, 75.701904%)" offset="0.0859375"/><stop stop-opacity="1" stop-color="rgb(95.610046%, 89.143372%, 75.991821%)" offset="0.0976562"/><stop stop-opacity="1" stop-color="rgb(95.700073%, 89.312744%, 76.283264%)" offset="0.109375"/><stop stop-opacity="1" stop-color="rgb(95.7901%, 89.483643%, 76.573181%)" offset="0.121094"/><stop stop-opacity="1" stop-color="rgb(95.880127%, 89.654541%, 76.863098%)" offset="0.132812"/><stop stop-opacity="1" stop-color="rgb(95.970154%, 89.823914%, 77.154541%)" offset="0.144531"/><stop stop-opacity="1" stop-color="rgb(96.060181%, 89.994812%, 77.444458%)" offset="0.15625"/><stop stop-opacity="1" stop-color="rgb(96.151733%, 90.164185%, 77.734375%)" offset="0.167969"/><stop stop-opacity="1" stop-color="rgb(96.24176%, 90.335083%, 78.025818%)" offset="0.179688"/><stop stop-opacity="1" stop-color="rgb(96.331787%, 90.505981%, 78.315735%)" offset="0.191406"/><stop stop-opacity="1" stop-color="rgb(96.421814%, 90.675354%, 78.605652%)" offset="0.203125"/><stop stop-opacity="1" stop-color="rgb(96.511841%, 90.846252%, 78.897095%)" offset="0.214844"/><stop stop-opacity="1" stop-color="rgb(96.601868%, 91.015625%, 79.187012%)" offset="0.226562"/><stop stop-opacity="1" stop-color="rgb(96.691895%, 91.186523%, 79.476929%)" offset="0.238281"/><stop stop-opacity="1" stop-color="rgb(96.781921%, 91.357422%, 79.768372%)" offset="0.25"/><stop stop-opacity="1" stop-color="rgb(96.856689%, 91.499329%, 80.00946%)" offset="0.261719"/><stop stop-opacity="1" stop-color="rgb(96.917725%, 91.612244%, 80.203247%)" offset="0.269531"/><stop stop-opacity="1" stop-color="rgb(96.977234%, 91.725159%, 80.397034%)" offset="0.277344"/><stop stop-opacity="1" stop-color="rgb(97.038269%, 91.8396%, 80.59082%)" offset="0.285156"/><stop stop-opacity="1" stop-color="rgb(97.097778%, 91.952515%, 80.784607%)" offset="0.292969"/><stop stop-opacity="1" stop-color="rgb(97.157288%, 92.06543%, 80.978394%)" offset="0.300781"/><stop stop-opacity="1" stop-color="rgb(97.218323%, 92.179871%, 81.17218%)" offset="0.308594"/><stop stop-opacity="1" stop-color="rgb(97.277832%, 92.292786%, 81.365967%)" offset="0.316406"/><stop stop-opacity="1" stop-color="rgb(97.338867%, 92.407227%, 81.558228%)" offset="0.324219"/><stop stop-opacity="1" stop-color="rgb(97.398376%, 92.520142%, 81.752014%)" offset="0.332031"/><stop stop-opacity="1" stop-color="rgb(97.457886%, 92.633057%, 81.945801%)" offset="0.339844"/><stop stop-opacity="1" stop-color="rgb(97.518921%, 92.747498%, 82.139587%)" offset="0.347656"/><stop stop-opacity="1" stop-color="rgb(97.612%, 92.904663%, 82.415771%)" offset="0.355469"/><stop stop-opacity="1" stop-color="rgb(97.73407%, 93.087769%, 82.743835%)" offset="0.375"/><stop stop-opacity="1" stop-color="rgb(97.83783%, 93.234253%, 83.009338%)" offset="0.394531"/><stop stop-opacity="1" stop-color="rgb(97.930908%, 93.363953%, 83.24585%)" offset="0.410156"/><stop stop-opacity="1" stop-color="rgb(98.023987%, 93.493652%, 83.482361%)" offset="0.425781"/><stop stop-opacity="1" stop-color="rgb(98.11554%, 93.623352%, 83.718872%)" offset="0.441406"/><stop stop-opacity="1" stop-color="rgb(98.208618%, 93.753052%, 83.955383%)" offset="0.457031"/><stop stop-opacity="1" stop-color="rgb(98.301697%, 93.882751%, 84.191895%)" offset="0.472656"/><stop stop-opacity="1" stop-color="rgb(98.394775%, 94.012451%, 84.428406%)" offset="0.488281"/><stop stop-opacity="1" stop-color="rgb(98.475647%, 94.126892%, 84.635925%)" offset="0.503906"/><stop stop-opacity="1" stop-color="rgb(98.545837%, 94.224548%, 84.812927%)" offset="0.515625"/><stop stop-opacity="1" stop-color="rgb(98.614502%, 94.322205%, 84.989929%)" offset="0.527344"/><stop stop-opacity="1" stop-color="rgb(98.684692%, 94.418335%, 85.166931%)" offset="0.539062"/><stop stop-opacity="1" stop-color="rgb(98.753357%, 94.515991%, 85.343933%)" offset="0.550781"/><stop stop-opacity="1" stop-color="rgb(98.823547%, 94.613647%, 85.522461%)" offset="0.5625"/><stop stop-opacity="1" stop-color="rgb(98.927307%, 94.760132%, 85.787964%)" offset="0.574219"/><stop stop-opacity="1" stop-color="rgb(99.066162%, 94.953918%, 86.141968%)" offset="0.597656"/><stop stop-opacity="1" stop-color="rgb(99.206543%, 95.149231%, 86.497498%)" offset="0.621094"/><stop stop-opacity="1" stop-color="rgb(99.333191%, 95.327759%, 86.82251%)" offset="0.644531"/><stop stop-opacity="1" stop-color="rgb(99.449158%, 95.489502%, 87.11853%)" offset="0.664062"/><stop stop-opacity="1" stop-color="rgb(99.568176%, 95.681763%, 87.457275%)" offset="0.683594"/><stop stop-opacity="1" stop-color="rgb(99.650574%, 95.855713%, 87.747192%)" offset="0.722656"/><stop stop-opacity="1" stop-color="rgb(99.710083%, 96.034241%, 88.031006%)" offset="0.753906"/><stop stop-opacity="1" stop-color="rgb(99.780273%, 96.244812%, 88.363647%)" offset="0.8125"/><stop stop-opacity="1" stop-color="rgb(99.835205%, 96.408081%, 88.621521%)" offset="0.859375"/><stop stop-opacity="1" stop-color="rgb(99.893188%, 96.578979%, 88.893127%)" offset="0.894531"/><stop stop-opacity="1" stop-color="rgb(99.963379%, 96.789551%, 89.225769%)" offset="0.945312"/><stop stop-opacity="1" stop-color="rgb(100%, 96.899414%, 89.399719%)" offset="1"/></radialGradient><clipPath id="id9"><path d="M 74 63.796875 L 95 63.796875 L 95 89.371094 L 74 89.371094 Z M 74 63.796875 " clip-rule="nonzero"/></clipPath><clipPath id="id10"><path d="M 92.59375 89.324219 L 76.011719 89.324219 C 75.203125 89.324219 74.546875 88.667969 74.546875 87.855469 L 74.546875 65.304688 C 74.546875 64.492188 75.203125 63.835938 76.011719 63.835938 L 86.132812 63.835938 C 86.523438 63.835938 86.894531 63.988281 87.167969 64.265625 L 93.628906 70.757812 C 93.902344 71.03125 94.054688 71.40625 94.054688 71.796875 L 94.054688 87.855469 C 94.054688 88.667969 93.402344 89.324219 92.59375 89.324219 Z M 92.59375 89.324219 " clip-rule="nonzero"/></clipPath><linearGradient x1="33" gradientTransform="matrix(0.487746, 0, 0, -0.490218, 68.206014, -49.851376)" y1="-231.907996" x2="33" gradientUnits="userSpaceOnUse" y2="-283.907997" xlink:type="simple" xlink:actuate="onLoad" id="id11" xlink:show="other"><stop stop-opacity="1" stop-color="rgb(0%, 84.298706%, 44.699097%)" offset="0"/><stop stop-opacity="1" stop-color="rgb(0%, 84.146118%, 44.682312%)" offset="0.015625"/><stop stop-opacity="1" stop-color="rgb(0%, 83.842468%, 44.648743%)" offset="0.03125"/><stop stop-opacity="1" stop-color="rgb(0%, 83.538818%, 44.615173%)" offset="0.046875"/><stop stop-opacity="1" stop-color="rgb(0%, 83.235168%, 44.581604%)" offset="0.0625"/><stop stop-opacity="1" stop-color="rgb(0%, 82.931519%, 44.548035%)" offset="0.078125"/><stop stop-opacity="1" stop-color="rgb(0%, 82.627869%, 44.514465%)" offset="0.09375"/><stop stop-opacity="1" stop-color="rgb(0%, 82.324219%, 44.480896%)" offset="0.109375"/><stop stop-opacity="1" stop-color="rgb(0%, 82.020569%, 44.447327%)" offset="0.125"/><stop stop-opacity="1" stop-color="rgb(0%, 81.716919%, 44.413757%)" offset="0.140625"/><stop stop-opacity="1" stop-color="rgb(0%, 81.413269%, 44.380188%)" offset="0.15625"/><stop stop-opacity="1" stop-color="rgb(0%, 81.109619%, 44.346619%)" offset="0.171875"/><stop stop-opacity="1" stop-color="rgb(0%, 80.805969%, 44.314575%)" offset="0.1875"/><stop stop-opacity="1" stop-color="rgb(0%, 80.502319%, 44.281006%)" offset="0.203125"/><stop stop-opacity="1" stop-color="rgb(0%, 80.198669%, 44.247437%)" offset="0.21875"/><stop stop-opacity="1" stop-color="rgb(0%, 79.89502%, 44.213867%)" offset="0.234375"/><stop stop-opacity="1" stop-color="rgb(0%, 79.59137%, 44.180298%)" offset="0.25"/><stop stop-opacity="1" stop-color="rgb(0%, 79.28772%, 44.146729%)" offset="0.265625"/><stop stop-opacity="1" stop-color="rgb(0%, 78.98407%, 44.113159%)" offset="0.28125"/><stop stop-opacity="1" stop-color="rgb(0%, 78.68042%, 44.07959%)" offset="0.296875"/><stop stop-opacity="1" stop-color="rgb(0%, 78.37677%, 44.046021%)" offset="0.3125"/><stop stop-opacity="1" stop-color="rgb(0%, 78.07312%, 44.012451%)" offset="0.328125"/><stop stop-opacity="1" stop-color="rgb(0%, 77.76947%, 43.978882%)" offset="0.34375"/><stop stop-opacity="1" stop-color="rgb(0%, 77.46582%, 43.945312%)" offset="0.359375"/><stop stop-opacity="1" stop-color="rgb(0%, 77.16217%, 43.911743%)" offset="0.375"/><stop stop-opacity="1" stop-color="rgb(0%, 76.858521%, 43.878174%)" offset="0.390625"/><stop stop-opacity="1" stop-color="rgb(0%, 76.553345%, 43.844604%)" offset="0.40625"/><stop stop-opacity="1" stop-color="rgb(0%, 76.249695%, 43.811035%)" offset="0.421875"/><stop stop-opacity="1" stop-color="rgb(0%, 75.946045%, 43.777466%)" offset="0.4375"/><stop stop-opacity="1" stop-color="rgb(0%, 75.642395%, 43.743896%)" offset="0.453125"/><stop stop-opacity="1" stop-color="rgb(0%, 75.338745%, 43.710327%)" offset="0.46875"/><stop stop-opacity="1" stop-color="rgb(0%, 75.035095%, 43.676758%)" offset="0.484375"/><stop stop-opacity="1" stop-color="rgb(0%, 74.731445%, 43.643188%)" offset="0.5"/><stop stop-opacity="1" stop-color="rgb(0%, 74.427795%, 43.609619%)" offset="0.515625"/><stop stop-opacity="1" stop-color="rgb(0%, 74.124146%, 43.57605%)" offset="0.53125"/><stop stop-opacity="1" stop-color="rgb(0%, 73.820496%, 43.54248%)" offset="0.546875"/><stop stop-opacity="1" stop-color="rgb(0%, 73.516846%, 43.508911%)" offset="0.5625"/><stop stop-opacity="1" stop-color="rgb(0%, 73.213196%, 43.475342%)" offset="0.578125"/><stop stop-opacity="1" stop-color="rgb(0%, 72.909546%, 43.441772%)" offset="0.59375"/><stop stop-opacity="1" stop-color="rgb(0%, 72.605896%, 43.409729%)" offset="0.609375"/><stop stop-opacity="1" stop-color="rgb(0%, 72.302246%, 43.37616%)" offset="0.625"/><stop stop-opacity="1" stop-color="rgb(0%, 71.998596%, 43.34259%)" offset="0.640625"/><stop stop-opacity="1" stop-color="rgb(0%, 71.694946%, 43.309021%)" offset="0.65625"/><stop stop-opacity="1" stop-color="rgb(0%, 71.391296%, 43.275452%)" offset="0.671875"/><stop stop-opacity="1" stop-color="rgb(0%, 71.087646%, 43.241882%)" offset="0.6875"/><stop stop-opacity="1" stop-color="rgb(0%, 70.783997%, 43.208313%)" offset="0.703125"/><stop stop-opacity="1" stop-color="rgb(0%, 70.480347%, 43.174744%)" offset="0.71875"/><stop stop-opacity="1" stop-color="rgb(0%, 70.176697%, 43.141174%)" offset="0.734375"/><stop stop-opacity="1" stop-color="rgb(0%, 69.91272%, 43.112183%)" offset="0.75"/><stop stop-opacity="1" stop-color="rgb(0%, 69.799805%, 43.099976%)" offset="1"/></linearGradient><clipPath id="id12"><path d="M 86 64 L 95 64 L 95 73 L 86 73 Z M 86 64 " clip-rule="nonzero"/></clipPath><clipPath id="id13"><path d="M 89.667969 67.757812 C 88.859375 67.757812 86.742188 65.136719 86.742188 64.324219 L 86.742188 71.1875 C 86.742188 72 87.394531 72.65625 88.203125 72.65625 L 94.054688 72.65625 L 94.054688 71.796875 C 94.054688 71.585938 94.007812 71.378906 93.921875 71.1875 Z M 89.667969 67.757812 " clip-rule="nonzero"/></clipPath><linearGradient x1="45.5" gradientTransform="matrix(0.487746, 0, 0, 0.490218, 68.206014, 60.847764)" y1="7.092006" x2="45.5" gradientUnits="userSpaceOnUse" y2="24.092006" xlink:type="simple" xlink:actuate="onLoad" id="id14" xlink:show="other"><stop stop-opacity="1" stop-color="rgb(0%, 84.298706%, 44.699097%)" offset="0"/><stop stop-opacity="1" stop-color="rgb(0%, 84.146118%, 44.682312%)" offset="0.015625"/><stop stop-opacity="1" stop-color="rgb(0%, 83.842468%, 44.648743%)" offset="0.03125"/><stop stop-opacity="1" stop-color="rgb(0%, 83.538818%, 44.615173%)" offset="0.046875"/><stop stop-opacity="1" stop-color="rgb(0%, 83.235168%, 44.581604%)" offset="0.0625"/><stop stop-opacity="1" stop-color="rgb(0%, 82.931519%, 44.548035%)" offset="0.078125"/><stop stop-opacity="1" stop-color="rgb(0%, 82.627869%, 44.514465%)" offset="0.09375"/><stop stop-opacity="1" stop-color="rgb(0%, 82.324219%, 44.480896%)" offset="0.109375"/><stop stop-opacity="1" stop-color="rgb(0%, 82.020569%, 44.447327%)" offset="0.125"/><stop stop-opacity="1" stop-color="rgb(0%, 81.716919%, 44.413757%)" offset="0.140625"/><stop stop-opacity="1" stop-color="rgb(0%, 81.413269%, 44.380188%)" offset="0.15625"/><stop stop-opacity="1" stop-color="rgb(0%, 81.109619%, 44.346619%)" offset="0.171875"/><stop stop-opacity="1" stop-color="rgb(0%, 80.805969%, 44.314575%)" offset="0.1875"/><stop stop-opacity="1" stop-color="rgb(0%, 80.502319%, 44.281006%)" offset="0.203125"/><stop stop-opacity="1" stop-color="rgb(0%, 80.198669%, 44.247437%)" offset="0.21875"/><stop stop-opacity="1" stop-color="rgb(0%, 79.89502%, 44.213867%)" offset="0.234375"/><stop stop-opacity="1" stop-color="rgb(0%, 79.59137%, 44.180298%)" offset="0.25"/><stop stop-opacity="1" stop-color="rgb(0%, 79.28772%, 44.146729%)" offset="0.265625"/><stop stop-opacity="1" stop-color="rgb(0%, 78.98407%, 44.113159%)" offset="0.28125"/><stop stop-opacity="1" stop-color="rgb(0%, 78.68042%, 44.07959%)" offset="0.296875"/><stop stop-opacity="1" stop-color="rgb(0%, 78.37677%, 44.046021%)" offset="0.3125"/><stop stop-opacity="1" stop-color="rgb(0%, 78.07312%, 44.012451%)" offset="0.328125"/><stop stop-opacity="1" stop-color="rgb(0%, 77.76947%, 43.978882%)" offset="0.34375"/><stop stop-opacity="1" stop-color="rgb(0%, 77.46582%, 43.945312%)" offset="0.359375"/><stop stop-opacity="1" stop-color="rgb(0%, 77.16217%, 43.911743%)" offset="0.375"/><stop stop-opacity="1" stop-color="rgb(0%, 76.858521%, 43.878174%)" offset="0.390625"/><stop stop-opacity="1" stop-color="rgb(0%, 76.553345%, 43.844604%)" offset="0.40625"/><stop stop-opacity="1" stop-color="rgb(0%, 76.249695%, 43.811035%)" offset="0.421875"/><stop stop-opacity="1" stop-color="rgb(0%, 75.946045%, 43.777466%)" offset="0.4375"/><stop stop-opacity="1" stop-color="rgb(0%, 75.642395%, 43.743896%)" offset="0.453125"/><stop stop-opacity="1" stop-color="rgb(0%, 75.338745%, 43.710327%)" offset="0.46875"/><stop stop-opacity="1" stop-color="rgb(0%, 75.035095%, 43.676758%)" offset="0.484375"/><stop stop-opacity="1" stop-color="rgb(0%, 74.731445%, 43.643188%)" offset="0.5"/><stop stop-opacity="1" stop-color="rgb(0%, 74.427795%, 43.609619%)" offset="0.515625"/><stop stop-opacity="1" stop-color="rgb(0%, 74.124146%, 43.57605%)" offset="0.53125"/><stop stop-opacity="1" stop-color="rgb(0%, 73.820496%, 43.54248%)" offset="0.546875"/><stop stop-opacity="1" stop-color="rgb(0%, 73.516846%, 43.508911%)" offset="0.5625"/><stop stop-opacity="1" stop-color="rgb(0%, 73.213196%, 43.475342%)" offset="0.578125"/><stop stop-opacity="1" stop-color="rgb(0%, 72.909546%, 43.441772%)" offset="0.59375"/><stop stop-opacity="1" stop-color="rgb(0%, 72.605896%, 43.409729%)" offset="0.609375"/><stop stop-opacity="1" stop-color="rgb(0%, 72.302246%, 43.37616%)" offset="0.625"/><stop stop-opacity="1" stop-color="rgb(0%, 71.998596%, 43.34259%)" offset="0.640625"/><stop stop-opacity="1" stop-color="rgb(0%, 71.694946%, 43.309021%)" offset="0.65625"/><stop stop-opacity="1" stop-color="rgb(0%, 71.391296%, 43.275452%)" offset="0.671875"/><stop stop-opacity="1" stop-color="rgb(0%, 71.087646%, 43.241882%)" offset="0.6875"/><stop stop-opacity="1" stop-color="rgb(0%, 70.783997%, 43.208313%)" offset="0.703125"/><stop stop-opacity="1" stop-color="rgb(0%, 70.480347%, 43.174744%)" offset="0.71875"/><stop stop-opacity="1" stop-color="rgb(0%, 70.176697%, 43.141174%)" offset="0.734375"/><stop stop-opacity="1" stop-color="rgb(0%, 69.91272%, 43.112183%)" offset="0.75"/><stop stop-opacity="1" stop-color="rgb(0%, 69.799805%, 43.099976%)" offset="1"/></linearGradient><clipPath id="id15"><path d="M 86 63.796875 L 94 63.796875 L 94 72 L 86 72 Z M 86 63.796875 " clip-rule="nonzero"/></clipPath><clipPath id="id16"><path d="M 93.628906 70.757812 L 87.167969 64.265625 C 87.042969 64.140625 86.898438 64.042969 86.742188 63.972656 L 86.742188 69.714844 C 86.742188 70.527344 87.394531 71.1875 88.203125 71.1875 L 93.921875 71.1875 C 93.847656 71.03125 93.753906 70.882812 93.628906 70.757812 Z M 93.628906 70.757812 " clip-rule="nonzero"/></clipPath><linearGradient x1="37.999999" gradientTransform="matrix(0.487746, 0, 0, -0.490218, 68.206014, -49.851376)" y1="-239.547" x2="52.721" gradientUnits="userSpaceOnUse" y2="-239.547" xlink:type="simple" xlink:actuate="onLoad" id="id17" xlink:show="other"><stop stop-opacity="1" stop-color="rgb(0%, 84.298706%, 44.699097%)" offset="0"/><stop stop-opacity="1" stop-color="rgb(0%, 84.135437%, 44.699097%)" offset="0.0625"/><stop stop-opacity="1" stop-color="rgb(0%, 83.808899%, 44.699097%)" offset="0.125"/><stop stop-opacity="1" stop-color="rgb(0%, 83.483887%, 44.699097%)" offset="0.1875"/><stop stop-opacity="1" stop-color="rgb(0%, 83.157349%, 44.699097%)" offset="0.25"/><stop stop-opacity="1" stop-color="rgb(0%, 82.830811%, 44.699097%)" offset="0.3125"/><stop stop-opacity="1" stop-color="rgb(0%, 82.585144%, 44.699097%)" offset="0.34375"/><stop stop-opacity="1" stop-color="rgb(0%, 82.380676%, 44.68689%)" offset="0.375"/><stop stop-opacity="1" stop-color="rgb(0%, 82.157898%, 44.66095%)" offset="0.390625"/><stop stop-opacity="1" stop-color="rgb(0%, 81.959534%, 44.630432%)" offset="0.40625"/><stop stop-opacity="1" stop-color="rgb(0%, 81.761169%, 44.598389%)" offset="0.421875"/><stop stop-opacity="1" stop-color="rgb(0%, 81.562805%, 44.567871%)" offset="0.4375"/><stop stop-opacity="1" stop-color="rgb(0%, 81.364441%, 44.535828%)" offset="0.453125"/><stop stop-opacity="1" stop-color="rgb(0%, 81.166077%, 44.50531%)" offset="0.46875"/><stop stop-opacity="1" stop-color="rgb(0%, 80.967712%, 44.474792%)" offset="0.484375"/><stop stop-opacity="1" stop-color="rgb(0%, 80.769348%, 44.442749%)" offset="0.5"/><stop stop-opacity="1" stop-color="rgb(0%, 80.570984%, 44.412231%)" offset="0.515625"/><stop stop-opacity="1" stop-color="rgb(0%, 80.37262%, 44.380188%)" offset="0.53125"/><stop stop-opacity="1" stop-color="rgb(0%, 80.174255%, 44.34967%)" offset="0.546875"/><stop stop-opacity="1" stop-color="rgb(0%, 79.975891%, 44.319153%)" offset="0.5625"/><stop stop-opacity="1" stop-color="rgb(0%, 79.776001%, 44.287109%)" offset="0.578125"/><stop stop-opacity="1" stop-color="rgb(0%, 79.577637%, 44.256592%)" offset="0.59375"/><stop stop-opacity="1" stop-color="rgb(0%, 79.379272%, 44.224548%)" offset="0.609375"/><stop stop-opacity="1" stop-color="rgb(0%, 79.180908%, 44.194031%)" offset="0.625"/><stop stop-opacity="1" stop-color="rgb(0%, 78.982544%, 44.163513%)" offset="0.640625"/><stop stop-opacity="1" stop-color="rgb(0%, 78.78418%, 44.13147%)" offset="0.65625"/><stop stop-opacity="1" stop-color="rgb(0%, 78.585815%, 44.100952%)" offset="0.671875"/><stop stop-opacity="1" stop-color="rgb(0%, 78.387451%, 44.068909%)" offset="0.6875"/><stop stop-opacity="1" stop-color="rgb(0%, 78.189087%, 44.038391%)" offset="0.703125"/><stop stop-opacity="1" stop-color="rgb(0%, 77.990723%, 44.007874%)" offset="0.71875"/><stop stop-opacity="1" stop-color="rgb(0%, 77.792358%, 43.97583%)" offset="0.734375"/><stop stop-opacity="1" stop-color="rgb(0%, 77.593994%, 43.945312%)" offset="0.75"/><stop stop-opacity="1" stop-color="rgb(0%, 77.394104%, 43.913269%)" offset="0.765625"/><stop stop-opacity="1" stop-color="rgb(0%, 77.137756%, 43.881226%)" offset="0.78125"/><stop stop-opacity="1" stop-color="rgb(0%, 76.823425%, 43.849182%)" offset="0.796875"/><stop stop-opacity="1" stop-color="rgb(0%, 76.51062%, 43.815613%)" offset="0.8125"/><stop stop-opacity="1" stop-color="rgb(0%, 76.197815%, 43.782043%)" offset="0.828125"/><stop stop-opacity="1" stop-color="rgb(0%, 75.88501%, 43.748474%)" offset="0.84375"/><stop stop-opacity="1" stop-color="rgb(0%, 75.570679%, 43.714905%)" offset="0.859375"/><stop stop-opacity="1" stop-color="rgb(0%, 75.257874%, 43.681335%)" offset="0.875"/><stop stop-opacity="1" stop-color="rgb(0%, 74.945068%, 43.647766%)" offset="0.890625"/><stop stop-opacity="1" stop-color="rgb(0%, 74.630737%, 43.614197%)" offset="0.90625"/><stop stop-opacity="1" stop-color="rgb(0%, 74.317932%, 43.580627%)" offset="0.921875"/><stop stop-opacity="1" stop-color="rgb(0%, 74.005127%, 43.548584%)" offset="0.9375"/><stop stop-opacity="1" stop-color="rgb(0%, 73.692322%, 43.515015%)" offset="0.953125"/><stop stop-opacity="1" stop-color="rgb(0%, 73.377991%, 43.481445%)" offset="0.96875"/><stop stop-opacity="1" stop-color="rgb(0%, 73.065186%, 43.447876%)" offset="0.984375"/><stop stop-opacity="1" stop-color="rgb(0%, 72.75238%, 43.414307%)" offset="1"/></linearGradient><clipPath id="id18"><path d="M 74.144531 94.039062 L 89.277344 94.039062 L 89.277344 113.347656 L 74.144531 113.347656 Z M 74.144531 94.039062 " clip-rule="nonzero"/></clipPath></defs><g clip-path="url(#id1)"><path fill="rgb(100%, 0%, 32.159424%)" d="M 84.265625 0.109375 C 42.90625 0.109375 9.375 33.640625 9.375 75.003906 C 9.375 116.363281 42.90625 149.894531 84.265625 149.894531 C 125.628906 149.894531 159.15625 116.363281 159.15625 75.003906 C 159.15625 33.640625 125.628906 0.109375 84.265625 0.109375 " fill-opacity="1" fill-rule="nonzero"/></g><path fill="rgb(100%, 46.269226%, 0%)" d="M 83.675781 22.613281 C 54.273438 22.613281 30.441406 46.445312 30.441406 75.84375 C 30.441406 105.242188 54.273438 129.078125 83.675781 129.078125 C 113.074219 129.078125 136.90625 105.242188 136.90625 75.84375 C 136.90625 46.445312 113.074219 22.613281 83.675781 22.613281 " fill-opacity="1" fill-rule="nonzero"/><g clip-path="url(#id2)"><path fill="rgb(0%, 0%, 0%)" d="M 60.859375 109.398438 C 56.9375 109.398438 53.316406 107.628906 50.933594 104.546875 C 48.550781 101.464844 47.769531 97.546875 48.792969 93.796875 L 50.027344 89.28125 C 51.398438 84.269531 48.914062 79.097656 44.121094 76.984375 C 43.660156 76.78125 43.359375 76.324219 43.359375 75.824219 C 43.359375 75.320312 43.660156 74.867188 44.121094 74.660156 C 48.914062 72.546875 51.398438 67.375 50.027344 62.363281 L 48.792969 57.847656 C 47.769531 54.101562 48.550781 50.183594 50.933594 47.097656 C 53.316406 44.015625 56.9375 42.25 60.859375 42.25 C 61.570312 42.25 62.144531 42.816406 62.144531 43.519531 C 62.144531 44.222656 61.570312 44.792969 60.859375 44.792969 C 57.742188 44.792969 54.867188 46.195312 52.976562 48.644531 C 51.082031 51.09375 50.460938 54.207031 51.273438 57.183594 L 52.507812 61.699219 C 53.996094 67.148438 51.824219 72.746094 47.273438 75.824219 C 51.824219 78.898438 53.996094 84.496094 52.507812 89.945312 L 51.273438 94.460938 C 50.460938 97.4375 51.082031 100.550781 52.976562 103 C 54.867188 105.449219 57.742188 106.851562 60.859375 106.851562 C 61.570312 106.851562 62.144531 107.421875 62.144531 108.125 C 62.144531 108.828125 61.570312 109.398438 60.859375 109.398438 " fill-opacity="1" fill-rule="nonzero"/></g><g clip-path="url(#id3)"><path fill="rgb(0%, 0%, 0%)" d="M 106.449219 109.398438 C 110.375 109.398438 113.992188 107.628906 116.375 104.546875 C 118.761719 101.464844 119.539062 97.546875 118.515625 93.796875 L 117.28125 89.28125 C 115.914062 84.269531 118.394531 79.097656 123.1875 76.984375 C 123.652344 76.78125 123.949219 76.324219 123.949219 75.824219 C 123.949219 75.320312 123.652344 74.867188 123.1875 74.660156 C 118.394531 72.546875 115.914062 67.375 117.28125 62.363281 L 118.515625 57.847656 C 119.539062 54.101562 118.761719 50.183594 116.375 47.097656 C 113.992188 44.015625 110.375 42.25 106.449219 42.25 C 105.742188 42.25 105.164062 42.816406 105.164062 43.519531 C 105.164062 44.222656 105.742188 44.792969 106.449219 44.792969 C 109.566406 44.792969 112.441406 46.195312 114.335938 48.644531 C 116.230469 51.09375 116.847656 54.207031 116.035156 57.183594 L 114.800781 61.699219 C 113.3125 67.148438 115.484375 72.746094 120.039062 75.824219 C 115.484375 78.898438 113.3125 84.496094 114.800781 89.945312 L 116.035156 94.460938 C 116.847656 97.4375 116.230469 100.550781 114.335938 103 C 112.441406 105.449219 109.566406 106.851562 106.449219 106.851562 C 105.742188 106.851562 105.164062 107.421875 105.164062 108.125 C 105.164062 108.828125 105.742188 109.398438 106.449219 109.398438 " fill-opacity="1" fill-rule="nonzero"/></g><g clip-path="url(#id4)"><path fill="rgb(0%, 0%, 0%)" d="M 83.820312 48.464844 L 83.820312 49.621094 C 68.917969 49.621094 56.792969 61.746094 56.792969 76.644531 C 56.792969 91.542969 68.917969 103.667969 83.820312 103.667969 L 83.820312 104.824219 C 68.277344 104.824219 55.636719 92.183594 55.636719 76.644531 C 55.636719 61.105469 68.277344 48.464844 83.820312 48.464844 Z M 83.820312 48.464844 " fill-opacity="1" fill-rule="nonzero"/></g><g clip-path="url(#id5)"><path fill="rgb(0%, 0%, 0%)" d="M 83.429688 104.683594 L 83.429688 103.527344 C 98.332031 103.527344 110.453125 91.402344 110.453125 76.503906 C 110.453125 61.605469 98.332031 49.480469 83.429688 49.480469 L 83.429688 48.324219 C 98.96875 48.324219 111.613281 60.964844 111.613281 76.503906 C 111.613281 92.042969 98.96875 104.683594 83.429688 104.683594 Z M 83.429688 104.683594 " fill-opacity="1" fill-rule="nonzero"/></g><g clip-path="url(#id6)"><g clip-path="url(#id7)"><path fill="url(#id8)" d="M 68.164062 87.363281 L 68.164062 65.796875 L 99.46875 65.796875 L 99.46875 87.363281 Z M 68.164062 87.363281 " fill-rule="nonzero"/></g></g><g clip-path="url(#id9)"><g clip-path="url(#id10)"><path fill="url(#id11)" d="M 74.546875 89.324219 L 74.546875 63.835938 L 94.054688 63.835938 L 94.054688 89.324219 Z M 74.546875 89.324219 " fill-rule="nonzero"/></g></g><g clip-path="url(#id12)"><g clip-path="url(#id13)"><path fill="url(#id14)" d="M 86.742188 64.324219 L 86.742188 72.65625 L 94.054688 72.65625 L 94.054688 64.324219 Z M 86.742188 64.324219 " fill-rule="nonzero"/></g></g><g clip-path="url(#id15)"><g clip-path="url(#id16)"><path fill="url(#id17)" d="M 86.742188 71.1875 L 86.742188 63.972656 L 93.921875 63.972656 L 93.921875 71.1875 Z M 86.742188 71.1875 " fill-rule="nonzero"/></g></g><path fill="rgb(94.509888%, 98.81897%, 100%)" d="M 90.15625 85.402344 L 78.449219 85.402344 C 77.910156 85.402344 77.472656 84.964844 77.472656 84.421875 C 77.472656 83.882812 77.910156 83.441406 78.449219 83.441406 L 90.15625 83.441406 C 90.695312 83.441406 91.128906 83.882812 91.128906 84.421875 C 91.128906 84.964844 90.695312 85.402344 90.15625 85.402344 Z M 83.8125 79.519531 L 89.910156 79.519531 C 90.449219 79.519531 90.886719 79.960938 90.886719 80.5 C 90.886719 81.042969 90.449219 81.480469 89.910156 81.480469 L 83.8125 81.480469 C 83.273438 81.480469 82.839844 81.042969 82.839844 80.5 C 82.839844 79.960938 83.273438 79.519531 83.8125 79.519531 Z M 78.449219 79.519531 L 82.839844 79.519531 C 83.378906 79.519531 83.8125 79.960938 83.8125 80.5 C 83.8125 81.042969 83.378906 81.480469 82.839844 81.480469 L 78.449219 81.480469 C 77.910156 81.480469 77.472656 81.042969 77.472656 80.5 C 77.472656 79.960938 77.910156 79.519531 78.449219 79.519531 Z M 79.425781 76.578125 L 79.425781 84.421875 C 79.425781 84.964844 78.988281 85.160156 78.449219 85.160156 L 78.449219 85.402344 C 77.910156 85.402344 77.472656 84.964844 77.472656 84.421875 L 77.472656 76.578125 C 77.472656 76.039062 77.910156 75.597656 78.449219 75.597656 C 78.988281 75.597656 79.425781 76.039062 79.425781 76.578125 Z M 84.300781 76.578125 L 84.300781 84.421875 C 84.300781 84.964844 83.863281 85.160156 83.324219 85.160156 L 83.324219 85.402344 C 82.789062 85.402344 82.351562 84.964844 82.351562 84.421875 L 82.351562 76.578125 C 82.351562 76.039062 82.789062 75.597656 83.324219 75.597656 C 83.863281 75.597656 84.300781 76.039062 84.300781 76.578125 Z M 91.128906 76.578125 L 91.128906 84.421875 C 91.128906 84.964844 90.695312 85.402344 90.15625 85.402344 L 90.15625 85.160156 C 89.617188 85.160156 89.179688 84.964844 89.179688 84.421875 L 89.179688 76.578125 C 89.179688 76.039062 89.617188 75.597656 90.15625 75.597656 C 90.695312 75.597656 91.128906 76.039062 91.128906 76.578125 Z M 78.449219 75.597656 L 90.15625 75.597656 C 90.695312 75.597656 91.128906 76.039062 91.128906 76.578125 C 91.128906 77.121094 90.695312 77.558594 90.15625 77.558594 L 78.449219 77.558594 C 77.910156 77.558594 77.472656 77.121094 77.472656 76.578125 C 77.472656 76.039062 77.910156 75.597656 78.449219 75.597656 Z M 78.449219 75.597656 " fill-opacity="1" fill-rule="nonzero"/><g clip-path="url(#id18)"><path fill="rgb(0%, 0%, 0%)" d="M 74.144531 94.039062 L 74.144531 113.347656 L 89.277344 103.695312 Z M 74.144531 94.039062 " fill-opacity="1" fill-rule="nonzero"/></g></svg>